0
SECTION
2
HEADER
9
$INSUNITS
70
4
9
$ACADVER
1
AC1014
9
$HANDSEED
5
FFFF
0
ENDSEC
0
SECTION
2
TABLES
0
TABLE
2
VPORT
5
8
100
AcDbSymbolTable
0
ENDTAB
0
TABLE
2
LTYPE
5
5
100
AcDbSymbolTable
0
LTYPE
5
14
100
AcDbSymbolTableRecord
100
AcDbLinetypeTableRecord
2
BYBLOCK
70
0
0
LTYPE
5
15
100
AcDbSymbolTableRecord
100
AcDbLinetypeTableRecord
2
BYLAYER
70
0
0
ENDTAB
0
TABLE
2
LAYER
5
2
100
AcDbSymbolTable
70
2
0
LAYER
5
50
100
AcDbSymbolTableRecord
100
AcDbLayerTableRecord
2
0
70
0
6
CONTINUOUS
0
ENDTAB
0
TABLE
2
STYLE
5
3
100
AcDbSymbolTable
70
1
0
STYLE
5
11
100
AcDbSymbolTableRecord
100
AcDbTextStyleTableRecord
2
STANDARD
70
0
0
ENDTAB
0
TABLE
2
VIEW
5
6
100
AcDbSymbolTable
70
0
0
ENDTAB
0
TABLE
2
UCS
5
7
100
AcDbSymbolTable
70
0
0
ENDTAB
0
TABLE
2
APPID
5
9
100
AcDbSymbolTable
70
2
0
APPID
5
12
100
AcDbSymbolTableRecord
100
AcDbRegAppTableRecord
2
ACAD
70
0
0
ENDTAB
0
TABLE
2
DIMSTYLE
5
A
100
AcDbSymbolTable
70
1
0
ENDTAB
0
TABLE
2
BLOCK_RECORD
5
1
100
AcDbSymbolTable
70
1
0
BLOCK_RECORD
5
1F
100
AcDbSymbolTableRecord
100
AcDbBlockTableRecord
2
*MODEL_SPACE
0
BLOCK_RECORD
5
1B
100
AcDbSymbolTableRecord
100
AcDbBlockTableRecord
2
*PAPER_SPACE
0
ENDTAB
0
ENDSEC
0
SECTION
2
BLOCKS
0
BLOCK
5
20
100
AcDbEntity
100
AcDbBlockBegin
2
*MODEL_SPACE
0
ENDBLK
5
21
100
AcDbEntity
100
AcDbBlockEnd
0
BLOCK
5
1C
100
AcDbEntity
100
AcDbBlockBegin
2
*PAPER_SPACE
0
ENDBLK
5
1D
100
AcDbEntity
100
AcDbBlockEnd
0
ENDSEC
0
SECTION
2
ENTITIES
0
LINE
5
100
100
AcDbEntity
8
0
100
AcDbLine
10
0
20
0
30
0
11
0
21
-2.9999999999999982
31
0
0
LINE
5
101
100
AcDbEntity
8
0
100
AcDbLine
10
0
20
-2.9999999999999982
30
0
11
1.3500000000000001
21
-2.9999999999999885
31
0
0
LINE
5
102
100
AcDbEntity
8
0
100
AcDbLine
10
1.3500000000000001
20
-2.9999999999999885
30
0
11
1.3500000000000048
21
-8.9999999999999893
31
0
0
LINE
5
103
100
AcDbEntity
8
0
100
AcDbLine
10
1.3500000000000048
20
-8.9999999999999893
30
0
11
4.6669732664430092e-15
21
-8.9999999999999893
31
0
0
LINE
5
104
100
AcDbEntity
8
0
100
AcDbLine
10
4.6669732664430092e-15
20
-8.9999999999999893
30
0
11
1.5451273834816134e-14
21
-17.999999999999989
31
0
0
LINE
5
105
100
AcDbEntity
8
0
100
AcDbLine
10
1.5451273834816134e-14
20
-17.999999999999989
30
0
11
1.5000000000000158
21
-17.999999999999989
31
0
0
LINE
5
106
100
AcDbEntity
8
0
100
AcDbLine
10
1.5000000000000158
20
-17.999999999999989
30
0
11
1.500000000000026
21
-11.999999999999989
31
0
0
LINE
5
107
100
AcDbEntity
8
0
100
AcDbLine
10
1.500000000000026
20
-11.999999999999989
30
0
11
3.5000000000000258
21
-11.999999999999989
31
0
0
LINE
5
108
100
AcDbEntity
8
0
100
AcDbLine
10
3.5000000000000258
20
-11.999999999999989
30
0
11
3.5000000000000346
21
2.5965674570390547e-15
31
0
0
LINE
5
109
100
AcDbEntity
8
0
100
AcDbLine
10
3.5000000000000346
20
2.5965674570390547e-15
30
0
11
0
21
0
31
0
0
LINE
5
110
100
AcDbEntity
8
0
100
AcDbLine
10
-1.5451273834816134e-14
20
-17.999999999999989
30
0
11
-1.5000000000000158
21
-17.999999999999989
31
0
0
LINE
5
111
100
AcDbEntity
8
0
100
AcDbLine
10
-1.5000000000000158
20
-17.999999999999989
30
0
11
-1.500000000000026
21
-11.999999999999989
31
0
0
LINE
5
112
100
AcDbEntity
8
0
100
AcDbLine
10
-1.500000000000026
20
-11.999999999999989
30
0
11
-3.5000000000000258
21
-11.999999999999989
31
0
0
LINE
5
113
100
AcDbEntity
8
0
100
AcDbLine
10
-3.5000000000000258
20
-11.999999999999989
30
0
11
-3.5000000000000346
21
2.5965674570390512e-15
31
0
0
LINE
5
114
100
AcDbEntity
8
0
100
AcDbLine
10
-1.3500000000000048
20
-8.9999999999999893
30
0
11
-4.6669732664430092e-15
21
-8.9999999999999893
31
0
0
LINE
5
115
100
AcDbEntity
8
0
100
AcDbLine
10
-1.3500000000000001
20
-2.9999999999999885
30
0
11
-1.3500000000000048
21
-8.9999999999999893
31
0
0
LINE
5
116
100
AcDbEntity
8
0
100
AcDbLine
10
0
20
-2.9999999999999982
30
0
11
-1.3500000000000001
21
-2.9999999999999885
31
0
0
LINE
5
117
100
AcDbEntity
8
0
100
AcDbLine
10
-3.5000000000000329
20
11.999999999999982
30
0
11
-3.5000000000000346
21
-7.9348319610457472e-15
31
0
0
LINE
5
118
100
AcDbEntity
8
0
100
AcDbLine
10
-1.5000000000000453
20
11.999999999999982
30
0
11
-3.5000000000000329
21
11.999999999999982
31
0
0
LINE
5
119
100
AcDbEntity
8
0
100
AcDbLine
10
-1.5000000000000422
20
17.999999999999986
30
0
11
-1.5000000000000453
21
11.999999999999982
31
0
0
LINE
5
120
100
AcDbEntity
8
0
100
AcDbLine
10
-4.1835808078020614e-14
20
17.999999999999989
30
0
11
-1.5000000000000422
21
17.999999999999986
31
0
0
LINE
5
121
100
AcDbEntity
8
0
100
AcDbLine
10
-1.1629467525973082e-14
20
17.999999999999989
30
0
11
1.4999999999999885
21
17.999999999999993
31
0
0
LINE
5
122
100
AcDbEntity
8
0
100
AcDbLine
10
1.4999999999999885
20
17.999999999999993
30
0
11
1.5000000000000078
21
11.999999999999993
31
0
0
LINE
5
123
100
AcDbEntity
8
0
100
AcDbLine
10
1.5000000000000078
20
11.999999999999993
30
0
11
3.500000000000008
21
11.999999999999993
31
0
0
LINE
5
124
100
AcDbEntity
8
0
100
AcDbLine
10
3.500000000000008
20
11.999999999999993
30
0
11
3.5000000000000346
21
2.5965674570390547e-15
31
0
0
LINE
5
125
100
AcDbEntity
8
0
100
AcDbLine
10
-1.3500000000000045
20
2.999999999999984
30
0
11
-1.3500000000000181
21
8.9999999999999893
31
0
0
LINE
5
126
100
AcDbEntity
8
0
100
AcDbLine
10
-4.9460010563043232e-15
20
2.9999999999999982
30
0
11
-1.3500000000000045
21
2.999999999999984
31
0
0
LINE
5
127
100
AcDbEntity
8
0
100
AcDbLine
10
-4.9460010563043232e-15
20
2.9999999999999982
30
0
11
1.3499999999999956
21
2.9999999999999858
31
0
0
LINE
5
128
100
AcDbEntity
8
0
100
AcDbLine
10
1.3499999999999956
20
2.9999999999999858
30
0
11
1.3499999999999914
21
8.9999999999999929
31
0
0
LINE
5
129
100
AcDbEntity
8
0
100
AcDbLine
10
1.3499999999999914
20
8.9999999999999929
30
0
11
-8.8733974139515903e-15
21
8.9999999999999893
31
0
0
LINE
5
130
100
AcDbEntity
8
0
100
AcDbLine
10
-1.3500000000000181
20
8.9999999999999893
30
0
11
-1.820734394683761e-14
21
8.9999999999999893
31
0
0
LINE
5
131
100
AcDbEntity
8
0
100
AcDbLine
10
11.349999999999994
20
8.9999999999999929
30
0
11
9.9999999999999911
21
8.9999999999999893
31
0
0
LINE
5
132
100
AcDbEntity
8
0
100
AcDbLine
10
11.349999999999998
20
2.9999999999999858
30
0
11
11.349999999999994
21
8.9999999999999929
31
0
0
LINE
5
133
100
AcDbEntity
8
0
100
AcDbLine
10
8.649999999999995
20
2.999999999999984
30
0
11
8.6499999999999826
21
8.9999999999999893
31
0
0
LINE
5
134
100
AcDbEntity
8
0
100
AcDbLine
10
9.9999999999999964
20
2.9999999999999982
30
0
11
11.349999999999998
21
2.9999999999999858
31
0
0
LINE
5
135
100
AcDbEntity
8
0
100
AcDbLine
10
8.6499999999999826
20
8.9999999999999893
30
0
11
9.9999999999999805
21
8.9999999999999893
31
0
0
LINE
5
136
100
AcDbEntity
8
0
100
AcDbLine
10
9.9999999999999964
20
2.9999999999999982
30
0
11
8.649999999999995
21
2.999999999999984
31
0
0
LINE
5
137
100
AcDbEntity
8
0
100
AcDbLine
10
10.000000000000004
20
-8.9999999999999893
30
0
11
10.000000000000016
21
-17.999999999999989
31
0
0
LINE
5
138
100
AcDbEntity
8
0
100
AcDbLine
10
11.499999999999989
20
17.999999999999993
30
0
11
11.500000000000007
21
11.999999999999993
31
0
0
LINE
5
139
100
AcDbEntity
8
0
100
AcDbLine
10
13.500000000000011
20
11.999999999999993
30
0
11
13.500000000000034
21
2.5965674570390547e-15
31
0
0
LINE
5
140
100
AcDbEntity
8
0
100
AcDbLine
10
8.649999999999995
20
-8.9999999999999893
30
0
11
9.9999999999999964
21
-8.9999999999999893
31
0
0
LINE
5
141
100
AcDbEntity
8
0
100
AcDbLine
10
13.500000000000034
20
2.5965674570390547e-15
30
0
11
10
21
0
31
0
0
LINE
5
142
100
AcDbEntity
8
0
100
AcDbLine
10
10
20
-2.9999999999999982
30
0
11
8.6500000000000004
21
-2.9999999999999885
31
0
0
LINE
5
143
100
AcDbEntity
8
0
100
AcDbLine
10
9.9999999999999893
20
17.999999999999989
30
0
11
11.499999999999989
21
17.999999999999993
31
0
0
LINE
5
144
100
AcDbEntity
8
0
100
AcDbLine
10
11.500000000000007
20
11.999999999999993
30
0
11
13.500000000000011
21
11.999999999999993
31
0
0
LINE
5
145
100
AcDbEntity
8
0
100
AcDbLine
10
8.6500000000000004
20
-2.9999999999999885
30
0
11
8.649999999999995
21
-8.9999999999999893
31
0
0
LINE
5
146
100
AcDbEntity
8
0
100
AcDbLine
10
11.500000000000025
20
-11.999999999999989
30
0
11
13.500000000000028
21
-11.999999999999989
31
0
0
LINE
5
147
100
AcDbEntity
8
0
100
AcDbLine
10
8.499999999999984
20
-17.999999999999989
30
0
11
8.4999999999999751
21
-11.999999999999989
31
0
0
LINE
5
148
100
AcDbEntity
8
0
100
AcDbLine
10
11.500000000000018
20
-17.999999999999989
30
0
11
11.500000000000025
21
-11.999999999999989
31
0
0
LINE
5
149
100
AcDbEntity
8
0
100
AcDbLine
10
10.000000000000016
20
-17.999999999999989
30
0
11
11.500000000000018
21
-17.999999999999989
31
0
0
LINE
5
150
100
AcDbEntity
8
0
100
AcDbLine
10
8.4999999999999751
20
-11.999999999999989
30
0
11
6.4999999999999734
21
-11.999999999999989
31
0
0
LINE
5
151
100
AcDbEntity
8
0
100
AcDbLine
10
9.999999999999984
20
-17.999999999999989
30
0
11
8.499999999999984
21
-17.999999999999989
31
0
0
LINE
5
152
100
AcDbEntity
8
0
100
AcDbLine
10
11.350000000000001
20
-2.9999999999999885
30
0
11
11.350000000000007
21
-8.9999999999999893
31
0
0
LINE
5
153
100
AcDbEntity
8
0
100
AcDbLine
10
11.350000000000007
20
-8.9999999999999893
30
0
11
10.000000000000004
21
-8.9999999999999893
31
0
0
LINE
5
154
100
AcDbEntity
8
0
100
AcDbLine
10
8.4999999999999538
20
11.999999999999982
30
0
11
6.4999999999999671
21
11.999999999999982
31
0
0
LINE
5
155
100
AcDbEntity
8
0
100
AcDbLine
10
8.4999999999999574
20
17.999999999999986
30
0
11
8.4999999999999538
21
11.999999999999982
31
0
0
LINE
5
156
100
AcDbEntity
8
0
100
AcDbLine
10
13.500000000000028
20
-11.999999999999989
30
0
11
13.500000000000034
21
2.5965674570390547e-15
31
0
0
LINE
5
157
100
AcDbEntity
8
0
100
AcDbLine
10
10
20
-2.9999999999999982
30
0
11
11.350000000000001
21
-2.9999999999999885
31
0
0
LINE
5
158
100
AcDbEntity
8
0
100
AcDbLine
10
6.4999999999999734
20
-11.999999999999989
30
0
11
6.4999999999999662
21
2.5965674570390512e-15
31
0
0
LINE
5
159
100
AcDbEntity
8
0
100
AcDbLine
10
10
20
0
30
0
11
10
21
-2.9999999999999982
31
0
0
LINE
5
160
100
AcDbEntity
8
0
100
AcDbLine
10
6.4999999999999671
20
11.999999999999982
30
0
11
6.4999999999999662
21
-7.9348319610457472e-15
31
0
0
LINE
5
161
100
AcDbEntity
8
0
100
AcDbLine
10
9.9999999999999574
20
17.999999999999989
30
0
11
8.4999999999999574
21
17.999999999999986
31
0
0
LINE
5
162
100
AcDbEntity
8
0
100
AcDbLine
10
21.349999999999994
20
8.9999999999999929
30
0
11
19.999999999999993
21
8.9999999999999893
31
0
0
LINE
5
163
100
AcDbEntity
8
0
100
AcDbLine
10
21.349999999999998
20
2.9999999999999858
30
0
11
21.349999999999994
21
8.9999999999999929
31
0
0
LINE
5
164
100
AcDbEntity
8
0
100
AcDbLine
10
18.649999999999991
20
2.999999999999984
30
0
11
18.649999999999981
21
8.9999999999999893
31
0
0
LINE
5
165
100
AcDbEntity
8
0
100
AcDbLine
10
19.999999999999996
20
2.9999999999999982
30
0
11
21.349999999999998
21
2.9999999999999858
31
0
0
LINE
5
166
100
AcDbEntity
8
0
100
AcDbLine
10
18.649999999999981
20
8.9999999999999893
30
0
11
19.999999999999982
21
8.9999999999999893
31
0
0
LINE
5
167
100
AcDbEntity
8
0
100
AcDbLine
10
19.999999999999996
20
2.9999999999999982
30
0
11
18.649999999999991
21
2.999999999999984
31
0
0
LINE
5
168
100
AcDbEntity
8
0
100
AcDbLine
10
20.000000000000004
20
-8.9999999999999893
30
0
11
20.000000000000014
21
-17.999999999999989
31
0
0
LINE
5
169
100
AcDbEntity
8
0
100
AcDbLine
10
21.499999999999989
20
17.999999999999993
30
0
11
21.500000000000007
21
11.999999999999993
31
0
0
LINE
5
170
100
AcDbEntity
8
0
100
AcDbLine
10
23.500000000000007
20
11.999999999999993
30
0
11
23.500000000000036
21
2.5965674570390547e-15
31
0
0
LINE
5
171
100
AcDbEntity
8
0
100
AcDbLine
10
18.649999999999991
20
-8.9999999999999893
30
0
11
19.999999999999996
21
-8.9999999999999893
31
0
0
LINE
5
172
100
AcDbEntity
8
0
100
AcDbLine
10
23.500000000000036
20
2.5965674570390547e-15
30
0
11
20
21
0
31
0
0
LINE
5
173
100
AcDbEntity
8
0
100
AcDbLine
10
20
20
-2.9999999999999982
30
0
11
18.649999999999999
21
-2.9999999999999885
31
0
0
LINE
5
174
100
AcDbEntity
8
0
100
AcDbLine
10
19.999999999999989
20
17.999999999999989
30
0
11
21.499999999999989
21
17.999999999999993
31
0
0
LINE
5
175
100
AcDbEntity
8
0
100
AcDbLine
10
21.500000000000007
20
11.999999999999993
30
0
11
23.500000000000007
21
11.999999999999993
31
0
0
LINE
5
176
100
AcDbEntity
8
0
100
AcDbLine
10
18.649999999999999
20
-2.9999999999999885
30
0
11
18.649999999999991
21
-8.9999999999999893
31
0
0
LINE
5
177
100
AcDbEntity
8
0
100
AcDbLine
10
21.500000000000025
20
-11.999999999999989
30
0
11
23.500000000000028
21
-11.999999999999989
31
0
0
LINE
5
178
100
AcDbEntity
8
0
100
AcDbLine
10
18.499999999999982
20
-17.999999999999989
30
0
11
18.499999999999975
21
-11.999999999999989
31
0
0
LINE
5
179
100
AcDbEntity
8
0
100
AcDbLine
10
21.500000000000014
20
-17.999999999999989
30
0
11
21.500000000000025
21
-11.999999999999989
31
0
0
LINE
5
180
100
AcDbEntity
8
0
100
AcDbLine
10
20.000000000000014
20
-17.999999999999989
30
0
11
21.500000000000014
21
-17.999999999999989
31
0
0
LINE
5
181
100
AcDbEntity
8
0
100
AcDbLine
10
18.499999999999975
20
-11.999999999999989
30
0
11
16.499999999999972
21
-11.999999999999989
31
0
0
LINE
5
182
100
AcDbEntity
8
0
100
AcDbLine
10
19.999999999999986
20
-17.999999999999989
30
0
11
18.499999999999982
21
-17.999999999999989
31
0
0
LINE
5
183
100
AcDbEntity
8
0
100
AcDbLine
10
21.350000000000001
20
-2.9999999999999885
30
0
11
21.350000000000009
21
-8.9999999999999893
31
0
0
LINE
5
184
100
AcDbEntity
8
0
100
AcDbLine
10
21.350000000000009
20
-8.9999999999999893
30
0
11
20.000000000000004
21
-8.9999999999999893
31
0
0
LINE
5
185
100
AcDbEntity
8
0
100
AcDbLine
10
18.499999999999954
20
11.999999999999982
30
0
11
16.499999999999968
21
11.999999999999982
31
0
0
LINE
5
186
100
AcDbEntity
8
0
100
AcDbLine
10
18.499999999999957
20
17.999999999999986
30
0
11
18.499999999999954
21
11.999999999999982
31
0
0
LINE
5
187
100
AcDbEntity
8
0
100
AcDbLine
10
23.500000000000028
20
-11.999999999999989
30
0
11
23.500000000000036
21
2.5965674570390547e-15
31
0
0
LINE
5
188
100
AcDbEntity
8
0
100
AcDbLine
10
20
20
-2.9999999999999982
30
0
11
21.350000000000001
21
-2.9999999999999885
31
0
0
LINE
5
189
100
AcDbEntity
8
0
100
AcDbLine
10
16.499999999999972
20
-11.999999999999989
30
0
11
16.499999999999964
21
2.5965674570390512e-15
31
0
0
LINE
5
190
100
AcDbEntity
8
0
100
AcDbLine
10
20
20
0
30
0
11
20
21
-2.9999999999999982
31
0
0
LINE
5
191
100
AcDbEntity
8
0
100
AcDbLine
10
16.499999999999968
20
11.999999999999982
30
0
11
16.499999999999964
21
-7.9348319610457472e-15
31
0
0
LINE
5
192
100
AcDbEntity
8
0
100
AcDbLine
10
19.999999999999957
20
17.999999999999989
30
0
11
18.499999999999957
21
17.999999999999986
31
0
0
LINE
5
193
100
AcDbEntity
8
0
100
AcDbLine
10
31.349999999999994
20
8.9999999999999929
30
0
11
29.999999999999993
21
8.9999999999999893
31
0
0
LINE
5
194
100
AcDbEntity
8
0
100
AcDbLine
10
31.349999999999998
20
2.9999999999999858
30
0
11
31.349999999999994
21
8.9999999999999929
31
0
0
LINE
5
195
100
AcDbEntity
8
0
100
AcDbLine
10
28.649999999999991
20
2.999999999999984
30
0
11
28.649999999999981
21
8.9999999999999893
31
0
0
LINE
5
196
100
AcDbEntity
8
0
100
AcDbLine
10
29.999999999999996
20
2.9999999999999982
30
0
11
31.349999999999998
21
2.9999999999999858
31
0
0
LINE
5
197
100
AcDbEntity
8
0
100
AcDbLine
10
28.649999999999981
20
8.9999999999999893
30
0
11
29.999999999999982
21
8.9999999999999893
31
0
0
LINE
5
198
100
AcDbEntity
8
0
100
AcDbLine
10
29.999999999999996
20
2.9999999999999982
30
0
11
28.649999999999991
21
2.999999999999984
31
0
0
LINE
5
199
100
AcDbEntity
8
0
100
AcDbLine
10
30.000000000000004
20
-8.9999999999999893
30
0
11
30.000000000000014
21
-17.999999999999989
31
0
0
LINE
5
200
100
AcDbEntity
8
0
100
AcDbLine
10
31.499999999999989
20
17.999999999999993
30
0
11
31.500000000000007
21
11.999999999999993
31
0
0
LINE
5
201
100
AcDbEntity
8
0
100
AcDbLine
10
33.500000000000007
20
11.999999999999993
30
0
11
33.500000000000036
21
2.5965674570390547e-15
31
0
0
LINE
5
202
100
AcDbEntity
8
0
100
AcDbLine
10
28.649999999999991
20
-8.9999999999999893
30
0
11
29.999999999999996
21
-8.9999999999999893
31
0
0
LINE
5
203
100
AcDbEntity
8
0
100
AcDbLine
10
33.500000000000036
20
2.5965674570390547e-15
30
0
11
30
21
0
31
0
0
LINE
5
204
100
AcDbEntity
8
0
100
AcDbLine
10
30
20
-2.9999999999999982
30
0
11
28.649999999999999
21
-2.9999999999999885
31
0
0
LINE
5
205
100
AcDbEntity
8
0
100
AcDbLine
10
29.999999999999993
20
17.999999999999989
30
0
11
31.499999999999989
21
17.999999999999993
31
0
0
LINE
5
206
100
AcDbEntity
8
0
100
AcDbLine
10
31.500000000000007
20
11.999999999999993
30
0
11
33.500000000000007
21
11.999999999999993
31
0
0
LINE
5
207
100
AcDbEntity
8
0
100
AcDbLine
10
28.649999999999999
20
-2.9999999999999885
30
0
11
28.649999999999991
21
-8.9999999999999893
31
0
0
LINE
5
208
100
AcDbEntity
8
0
100
AcDbLine
10
31.500000000000025
20
-11.999999999999989
30
0
11
33.500000000000028
21
-11.999999999999989
31
0
0
LINE
5
209
100
AcDbEntity
8
0
100
AcDbLine
10
28.499999999999986
20
-17.999999999999989
30
0
11
28.499999999999975
21
-11.999999999999989
31
0
0
LINE
5
210
100
AcDbEntity
8
0
100
AcDbLine
10
31.500000000000014
20
-17.999999999999989
30
0
11
31.500000000000025
21
-11.999999999999989
31
0
0
LINE
5
211
100
AcDbEntity
8
0
100
AcDbLine
10
30.000000000000014
20
-17.999999999999989
30
0
11
31.500000000000014
21
-17.999999999999989
31
0
0
LINE
5
212
100
AcDbEntity
8
0
100
AcDbLine
10
28.499999999999975
20
-11.999999999999989
30
0
11
26.499999999999972
21
-11.999999999999989
31
0
0
LINE
5
213
100
AcDbEntity
8
0
100
AcDbLine
10
29.999999999999986
20
-17.999999999999989
30
0
11
28.499999999999986
21
-17.999999999999989
31
0
0
LINE
5
214
100
AcDbEntity
8
0
100
AcDbLine
10
31.350000000000001
20
-2.9999999999999885
30
0
11
31.350000000000009
21
-8.9999999999999893
31
0
0
LINE
5
215
100
AcDbEntity
8
0
100
AcDbLine
10
31.350000000000009
20
-8.9999999999999893
30
0
11
30.000000000000004
21
-8.9999999999999893
31
0
0
LINE
5
216
100
AcDbEntity
8
0
100
AcDbLine
10
28.499999999999957
20
11.999999999999982
30
0
11
26.499999999999968
21
11.999999999999982
31
0
0
LINE
5
217
100
AcDbEntity
8
0
100
AcDbLine
10
28.499999999999957
20
17.999999999999986
30
0
11
28.499999999999957
21
11.999999999999982
31
0
0
LINE
5
218
100
AcDbEntity
8
0
100
AcDbLine
10
33.500000000000028
20
-11.999999999999989
30
0
11
33.500000000000036
21
2.5965674570390547e-15
31
0
0
LINE
5
219
100
AcDbEntity
8
0
100
AcDbLine
10
30
20
-2.9999999999999982
30
0
11
31.350000000000001
21
-2.9999999999999885
31
0
0
LINE
5
220
100
AcDbEntity
8
0
100
AcDbLine
10
26.499999999999972
20
-11.999999999999989
30
0
11
26.499999999999964
21
2.5965674570390512e-15
31
0
0
LINE
5
221
100
AcDbEntity
8
0
100
AcDbLine
10
30
20
0
30
0
11
30
21
-2.9999999999999982
31
0
0
LINE
5
222
100
AcDbEntity
8
0
100
AcDbLine
10
26.499999999999968
20
11.999999999999982
30
0
11
26.499999999999964
21
-7.9348319610457472e-15
31
0
0
LINE
5
223
100
AcDbEntity
8
0
100
AcDbLine
10
29.999999999999957
20
17.999999999999989
30
0
11
28.499999999999957
21
17.999999999999986
31
0
0
LINE
5
224
100
AcDbEntity
8
0
100
AcDbLine
10
41.349999999999987
20
8.9999999999999929
30
0
11
39.999999999999993
21
8.9999999999999893
31
0
0
LINE
5
225
100
AcDbEntity
8
0
100
AcDbLine
10
41.349999999999994
20
2.9999999999999858
30
0
11
41.349999999999987
21
8.9999999999999929
31
0
0
LINE
5
226
100
AcDbEntity
8
0
100
AcDbLine
10
38.649999999999991
20
2.999999999999984
30
0
11
38.649999999999977
21
8.9999999999999893
31
0
0
LINE
5
227
100
AcDbEntity
8
0
100
AcDbLine
10
39.999999999999993
20
2.9999999999999982
30
0
11
41.349999999999994
21
2.9999999999999858
31
0
0
LINE
5
228
100
AcDbEntity
8
0
100
AcDbLine
10
38.649999999999977
20
8.9999999999999893
30
0
11
39.999999999999986
21
8.9999999999999893
31
0
0
LINE
5
229
100
AcDbEntity
8
0
100
AcDbLine
10
39.999999999999993
20
2.9999999999999982
30
0
11
38.649999999999991
21
2.999999999999984
31
0
0
LINE
5
230
100
AcDbEntity
8
0
100
AcDbLine
10
40.000000000000007
20
-8.9999999999999893
30
0
11
40.000000000000014
21
-17.999999999999989
31
0
0
LINE
5
231
100
AcDbEntity
8
0
100
AcDbLine
10
41.499999999999986
20
17.999999999999993
30
0
11
41.5
21
11.999999999999993
31
0
0
LINE
5
232
100
AcDbEntity
8
0
100
AcDbLine
10
43.500000000000007
20
11.999999999999993
30
0
11
43.500000000000043
21
2.5965674570390547e-15
31
0
0
LINE
5
233
100
AcDbEntity
8
0
100
AcDbLine
10
38.649999999999991
20
-8.9999999999999893
30
0
11
39.999999999999993
21
-8.9999999999999893
31
0
0
LINE
5
234
100
AcDbEntity
8
0
100
AcDbLine
10
43.500000000000043
20
2.5965674570390547e-15
30
0
11
40
21
0
31
0
0
LINE
5
235
100
AcDbEntity
8
0
100
AcDbLine
10
40
20
-2.9999999999999982
30
0
11
38.649999999999999
21
-2.9999999999999885
31
0
0
LINE
5
236
100
AcDbEntity
8
0
100
AcDbLine
10
39.999999999999993
20
17.999999999999989
30
0
11
41.499999999999986
21
17.999999999999993
31
0
0
LINE
5
237
100
AcDbEntity
8
0
100
AcDbLine
10
41.5
20
11.999999999999993
30
0
11
43.500000000000007
21
11.999999999999993
31
0
0
LINE
5
238
100
AcDbEntity
8
0
100
AcDbLine
10
38.649999999999999
20
-2.9999999999999885
30
0
11
38.649999999999991
21
-8.9999999999999893
31
0
0
LINE
5
239
100
AcDbEntity
8
0
100
AcDbLine
10
41.500000000000021
20
-11.999999999999989
30
0
11
43.500000000000021
21
-11.999999999999989
31
0
0
LINE
5
240
100
AcDbEntity
8
0
100
AcDbLine
10
38.499999999999986
20
-17.999999999999989
30
0
11
38.499999999999972
21
-11.999999999999989
31
0
0
LINE
5
241
100
AcDbEntity
8
0
100
AcDbLine
10
41.500000000000014
20
-17.999999999999989
30
0
11
41.500000000000021
21
-11.999999999999989
31
0
0
LINE
5
242
100
AcDbEntity
8
0
100
AcDbLine
10
40.000000000000014
20
-17.999999999999989
30
0
11
41.500000000000014
21
-17.999999999999989
31
0
0
LINE
5
243
100
AcDbEntity
8
0
100
AcDbLine
10
38.499999999999972
20
-11.999999999999989
30
0
11
36.499999999999972
21
-11.999999999999989
31
0
0
LINE
5
244
100
AcDbEntity
8
0
100
AcDbLine
10
39.999999999999986
20
-17.999999999999989
30
0
11
38.499999999999986
21
-17.999999999999989
31
0
0
LINE
5
245
100
AcDbEntity
8
0
100
AcDbLine
10
41.349999999999994
20
-2.9999999999999885
30
0
11
41.350000000000009
21
-8.9999999999999893
31
0
0
LINE
5
246
100
AcDbEntity
8
0
100
AcDbLine
10
41.350000000000009
20
-8.9999999999999893
30
0
11
40.000000000000007
21
-8.9999999999999893
31
0
0
LINE
5
247
100
AcDbEntity
8
0
100
AcDbLine
10
38.499999999999957
20
11.999999999999982
30
0
11
36.499999999999972
21
11.999999999999982
31
0
0
LINE
5
248
100
AcDbEntity
8
0
100
AcDbLine
10
38.499999999999957
20
17.999999999999986
30
0
11
38.499999999999957
21
11.999999999999982
31
0
0
LINE
5
249
100
AcDbEntity
8
0
100
AcDbLine
10
43.500000000000021
20
-11.999999999999989
30
0
11
43.500000000000043
21
2.5965674570390547e-15
31
0
0
LINE
5
250
100
AcDbEntity
8
0
100
AcDbLine
10
40
20
-2.9999999999999982
30
0
11
41.349999999999994
21
-2.9999999999999885
31
0
0
LINE
5
251
100
AcDbEntity
8
0
100
AcDbLine
10
36.499999999999972
20
-11.999999999999989
30
0
11
36.499999999999964
21
2.5965674570390512e-15
31
0
0
LINE
5
252
100
AcDbEntity
8
0
100
AcDbLine
10
40
20
0
30
0
11
40
21
-2.9999999999999982
31
0
0
LINE
5
253
100
AcDbEntity
8
0
100
AcDbLine
10
36.499999999999972
20
11.999999999999982
30
0
11
36.499999999999964
21
-7.9348319610457472e-15
31
0
0
LINE
5
254
100
AcDbEntity
8
0
100
AcDbLine
10
39.999999999999957
20
17.999999999999989
30
0
11
38.499999999999957
21
17.999999999999986
31
0
0
ENDSEC
0
SECTION
2
OBJECTS
0
DICTIONARY
5
C
100
AcDbDictionary
3
ACAD_GROUP
350
D
3
ACAD_MLINESTYLE
350
17
0
DICTIONARY
5
D
100
AcDbDictionary
0
DICTIONARY
5
1A
330
C
100
AcDbDictionary
0
DICTIONARY
5
17
100
AcDbDictionary
0
ENDSEC
0
EOF
