<svg xmlns="http://www.w3.org/2000/svg" viewBox="0 0 190.03 392.81"><defs><style>.cls-1{fill:#020000;}</style></defs><title>Fichier 3</title><g id="Calque_2" data-name="Calque 2"><g id="Calque_1-2" data-name="Calque 1"><path class="cls-1" d="M158.65,345.32a5.06,5.06,0,0,1,1.36-.66,1.53,1.53,0,0,1,1.27.36,13.79,13.79,0,0,1,2.3,6.69c.06.5-.45,1.08-.7,1.63-.44-.3-.89-.56-1.29-.89a1.52,1.52,0,0,1-.37-.6C160.37,349.72,159.54,347.58,158.65,345.32Z"/><path class="cls-1" d="M148.8,360.31a5.93,5.93,0,0,1-.3-1.28,21.36,21.36,0,0,0-3.39-10.33,2.74,2.74,0,0,1-.34-1.35,1.07,1.07,0,0,1,.51-.81,1,1,0,0,1,.86.4c1.93,2.92,3.58,6,3.48,9.61,0,1.24-.2,2.48-.31,3.72Z"/><path class="cls-1" d="M107,366.87a2.28,2.28,0,0,1-.43-.63c-.87-3.31-1.73-6.62-2.53-9.95-.08-.32.2-.73.31-1.09.24.27.61.51.7.82q1.26,4.61,2.42,9.24a6.6,6.6,0,0,1,0,1.54Z"/><path class="cls-1" d="M140.49,379.2a10,10,0,0,0-.2,1.2c-.08,1.43,0,2.88-.24,4.3a2.42,2.42,0,0,1-.94,1.72c-.87.4-.81-.69-1.15-1.14,0-.06-.13-.08-.4-.23-.06.5-.09.94-.18,1.36-.28,1.3-.57,2.6-.92,3.88a.93.93,0,0,1-.69.45c-.15,0-.37-.29-.52-.48-.95-1.17-.83-2.59-.92-4-.15-2.35-.34-4.7-.54-7.05a2.11,2.11,0,0,0-.44-1.11,9.26,9.26,0,0,0-1,4.17,4.12,4.12,0,0,1-.28,1.36.89.89,0,0,1-.72.45c-.21,0-.44-.44-.48-.71-.29-2-.66-4.09-.78-6.14-.12-2.22-.55-4.18-2.83-5.37,0,.32,0,.67-.07,1-.1,3.36-.13,6.72-.36,10.07a24.7,24.7,0,0,1-1,3.51c-.25,1.08-.32,2.2-.52,3.3,0,.32-.19.79-.43.89-.52.24-1,0-.84-.65.56-2-.29-3.41-1.43-4.85a2.33,2.33,0,0,1-.31-1.35c0-2.16.1-4.32.07-6.48a6.16,6.16,0,0,0-.58-1.69c-.28-.83-.57-1.65-.8-2.49-.16-.57-.17-1.19-.35-1.75-.08-.24-.41-.39-.63-.58-.14.25-.41.49-.42.74,0,1,0,2,0,3a10.26,10.26,0,0,1-.28,1.53l-.54,0-.86-4.72h-.25a28.42,28.42,0,0,1,0,2.92c0,.39-.41.75-.64,1.13-.21-.35-.55-.68-.6-1.05-.14-.9-.11-1.84-.24-2.75,0-.27-.35-.51-.54-.76-.2.28-.57.56-.56.84,0,1,.18,2,.2,3,0,.3-.28.6-.43.91-.3-.22-.76-.36-.88-.65a6.54,6.54,0,0,1-.43-1.86,30.83,30.83,0,0,1-.31-4.06,4,4,0,0,0-1.67-3.46,8.26,8.26,0,0,1-1-1.25,12.84,12.84,0,0,1,.13,2.12c0,.36-.4.69-.61,1-.19-.3-.53-.59-.54-.9-.15-3.13-1.83-5.74-2.88-8.56-.14-.38-.31-.93-.14-1.18s.74-.24,1.14-.3a16.42,16.42,0,0,0,2.75-.4c2.31-.76,4.57-1.64,6.84-2.51,1-.38,1.43,0,1.57.94a15.91,15.91,0,0,0,.38,2.19,3.46,3.46,0,0,0,.67,1.09c.69.88,1.46,1.7,2.09,2.62a2.1,2.1,0,0,1,.36,2.45.71.71,0,0,0,0,.57c.68,1.57,1.37,3.12,2.19,5a6,6,0,0,0,.15-1c-.06-1.68-.2-3.35-.22-5a5.16,5.16,0,0,0-1.45-3.68c-.69-.73-1.27-1.55-2.06-2.54a3.08,3.08,0,0,1,2.82,1.11c.78,1,1.76,1.78,2.6,2.71a18.41,18.41,0,0,1,1.23,1.76c.27.37.55.72.86,1.13a4,4,0,0,0,0-3.61,1,1,0,0,0-.58-.38c-2.46-.12-3.09-2.34-4.42-3.76a4.73,4.73,0,0,0-1.51-1.33c-3.76-1.47-7.48-.59-11.17.36-.5.13-1,.4-1.46.55-2,.57-2.07.53-2.94-1.2,0,0-.06.05-.07.08-.24.59-.46,1.19-.69,1.78-.34-.47-.65-1-1-1.42-.6-.72-1.25-1.41-1.93-2.18-.11,4.79,1.74,9.29,1.89,14l-.49.14a4.44,4.44,0,0,1-.56-1c-.3-1.16-.47-2.35-.79-3.51-.57-2.1-1.35-4.16-1.79-6.29a34.78,34.78,0,0,1-.45-5.21c0-.33.3-.67.46-1l.81.7.27.22c.35-.77.67-1.52,1-2.25s.82-.83,1.4-.26a3.47,3.47,0,0,1,1.35,2.69,2.6,2.6,0,0,0,.12.65,4.41,4.41,0,0,0,4.19-.84,5,5,0,0,0,1.26-1.73c1.36-2.6,3.29-2.86,6.4-2.16a8.11,8.11,0,0,1,4.15,1.92c.72.69,1.51.46,2.43.15a25.44,25.44,0,0,1,6.68-1.7,98.5,98.5,0,0,1,10.28.56c.28,0,.59.17.83.09,1.6-.57,2.05.64,2.44,1.68,1.17,3.19,2.22,6.36,2,9.9a19.58,19.58,0,0,0,.9,6.38c.95,3.32,1.57,6.78,3.49,9.78a4.06,4.06,0,0,1,.35,1.84c.14,1.89.23,3.79.34,5.69l.35,0c.07-.14.22-.29.21-.44-.15-3.61.06-7.23-1.54-10.7a24.79,24.79,0,0,1-1.36-5.77,3.81,3.81,0,0,1,.27-1.4H150c.29,1.46.49,2.95.89,4.37s1,2.92,1.57,4.38l.34-.05a5.67,5.67,0,0,0-.1-1.24,40,40,0,0,1-1.58-11.46,19.8,19.8,0,0,0-2.37-9.79,44,44,0,0,1-1.89-4.27c1,.09,1.83.22,2.7.23,2,0,4.06,0,6.08-.07,1.65-.09,2.17.23,2.81,1.71.88,2,1.89,3.95,2.86,5.92.33.66.72,1.36,1.63,1.07s1.81-.71,1.93-1.87a9.64,9.64,0,0,0-.67-5.63c-.57-1.09-1.09-2.21-1.68-3.42,1-.52,2.11-1.12,3.22-1.59a1.21,1.21,0,0,1,1.08.26,6,6,0,0,1,1.56,2.43c.39,2.76.46,5.57.73,8.35a9.33,9.33,0,0,0,.67,1.92,17.1,17.1,0,0,1,.49,1.69,10.13,10.13,0,0,1,.14,1.35h.32c0-.64,0-1.3,0-1.94,0-.26.26-.51.4-.76.24.18.62.33.67.56a15.63,15.63,0,0,1,.52,3.18,12.53,12.53,0,0,1-.57,5.16c-.47,1.2-.07,2.75,0,4.14.16,2.91.43,5.81.52,8.71a6.75,6.75,0,0,1-.67,2.51c-.09.22-.57.29-.87.43a3.66,3.66,0,0,1-.2-.84c-.06-2.31-.06-4.62-.19-6.92,0-.48-.52-.93-.8-1.39l-.92,1.05c-.12.15-.22.31-.4.56l-.93-.77c-1.64,4.81,0,9.79-.5,14.65l-.6,0-.52-2.87h-.23a4.78,4.78,0,0,1-.2,1.09c-.18.47-.51.87-.71,1.33s-.29,1.05-.52,1.53a6.28,6.28,0,0,1-.77,1,6.27,6.27,0,0,1-.77-1.05,2.94,2.94,0,0,1-.07-.95c-.23-2.91-.43-5.82-.7-8.72s-.63-5.78-.95-8.67l-.38,0c-.08,1.74-.25,3.48-.23,5.22,0,2.48.19,5,.26,7.43a4.44,4.44,0,0,1-.21,1.66c-.24.67-.44,1.7-1.58.61-.29,2-.61,3.81-.81,5.63-.1,1-.67,1-1.4,1s-1-.39-1.07-1.08c-.08-1.59-.17-3.17-.26-4.75l-.36-.07a7.63,7.63,0,0,0-.21,1.16c0,1.27,0,2.55,0,3.83,0,.68-.27.88-.93.9-3.21.14-3.08.14-3.59-3.05-.75-4.65-1.63-9.29-2.6-13.9a44.17,44.17,0,0,0-1.73-5.17l-.4,0c.14,1.43.29,2.85.4,4.28.27,3.38.53,6.76.75,10.15,0,.31-.32.65-.5,1-.22-.28-.59-.53-.66-.85a15.82,15.82,0,0,1-.52-3.26c0-2.77-1-5.3-1.73-7.92-.95-3.45-1.85-6.94-1.63-10.6a2.88,2.88,0,0,0-.36-1.07,5.43,5.43,0,0,0-.53,1c-.69,2.52.42,4.89.67,7.33.43,4.12,1,8.22,1.55,12.34a4.44,4.44,0,0,1,0,1.54c-.08.36-.47.64-.72,1-.28-.3-.74-.56-.81-.9a23,23,0,0,1-.23-2.5c0-.33-.12-.65-.18-1Zm15.75-13.9c1.8.52,3.21-.19,4.62-1.78a43.16,43.16,0,0,1,4.92-4.83c.75-.62,2-.7,3-1-.77-2.37-2-2.81-3.75-1.08a49,49,0,0,0-4.12,5c-1.12,1.47-2.12,3-4.11,3.43A1.7,1.7,0,0,0,156.24,365.3ZM125.78,356c.33-.75.59-1.26.78-1.8.09-.28.18-.76,0-.88a5.42,5.42,0,0,1-1.53-3.16c-.17-.69-.75-.73-1-.19-1,1.87-2.34,1.36-3.9,1a18.45,18.45,0,0,0-4.46-.34c-.42,0-.84.63-1.26,1l.24.37c.39,0,.78,0,1.16-.08a13.86,13.86,0,0,1,7.4.85c.83.32,1.59.64,1.61,1.8C124.85,355,125.41,355.44,125.78,356Zm7.38,13.78.67,0a6.34,6.34,0,0,0,.19-2.17c-.75-2.44-1.64-4.84-2.51-7.23a5.45,5.45,0,0,0-.68-1.06l-.31.16Zm-.57-22.28c.12,1.14.23,2,.28,2.78a1.13,1.13,0,0,1-1.25,1.27c-.39,0-.91-.52-1.1-.93a17.29,17.29,0,0,1-.57-2.2c-.06-.2-.31-.34-.53-.58a5.32,5.32,0,0,0,1.36,4.84,2.59,2.59,0,0,0,2.56-.21C133.94,351.7,133.63,348.51,132.59,347.48Zm6.68,6.18c.34-1.22.36-2-.56-2.67a4.59,4.59,0,0,1-1-2,3.39,3.39,0,0,1,.05-1.16l-2.84-.17c.31.86.4,1.87.73,1.95,1.56.4,1.82,1.86,2.63,2.86ZM159,358.31c.25-.37.42-.51.4-.61a2.76,2.76,0,0,1,.65-2.83c.13-.14-.31-1-.67-1.34-.2-.19-.86-.08-1.17.12s-.17.68-.12,1a20.94,20.94,0,0,0,.41,2.21C158.62,357.3,158.8,357.69,159,358.31Z"/><path class="cls-1" d="M99.72,354.86c.26.32.56.54.65.83.45,1.36.86,2.74,1.23,4.12a1.18,1.18,0,0,1-.1.91c-.32.43-.76,1-1.17,1s-.93-.58-1.1-1a7,7,0,0,1-.62-2.87A11.81,11.81,0,0,1,99.72,354.86Z"/><path class="cls-1" d="M108,348.17c0-1.39,2.19-3.46,3.11-3.31a.81.81,0,0,1,.53,1.37,16.32,16.32,0,0,1-2.6,2.52C108.89,348.86,108.23,348.3,108,348.17Z"/><path class="cls-1" d="M89.81,379.11l-1.57-2.51c.17,4.19,2,7.92,3.13,11.84l-.28.19a11.44,11.44,0,0,1-.94-.75A37.41,37.41,0,0,1,83.6,377.5c-1.32-2.9-2.42-5.9-3.58-8.88a5.18,5.18,0,0,1-.33-1.75c0-.33.28-.67.43-1a3.24,3.24,0,0,1,.69.81c.35.94.62,1.92,1.07,2.89.05-.9,0-1.79,1.28-1.64a1.27,1.27,0,0,0,.27-.89c-.34-.89-.83-1.72-1.17-2.62-.12-.29.06-.69.1-1.05.33.15.82.2,1,.46,1,1.57,1.92,3.14,2.71,4.79,1.39,2.91,2.68,5.88,4,8.83a5.79,5.79,0,0,1,.25,1.46Z"/><path class="cls-1" d="M96.83,354.31c1.1,3.67,1,7.41,1.06,11.15l-.43.11a6.88,6.88,0,0,1-.5-1.16c-.75-3.64-1.5-7.27-2.2-10.92-.19-1-.41-1.53-1.61-1.13-1,.35-2.71-1.26-2.44-2.29.08-.29.73-.54,1.14-.6a14.55,14.55,0,0,1,2.87-.16,1.93,1.93,0,0,1,1.31.63c.58.74.75,1.88,2.19,1.48.22-.06.89.91,1.07,1.48a2.76,2.76,0,0,1-.19,1.66c0,.14-.72.14-1.07.07a3.74,3.74,0,0,1-.93-.48Z"/><path class="cls-1" d="M94.4,373.61a6.48,6.48,0,0,0-.83,1.23c-.29.75-.81.92-1.2.31a5.18,5.18,0,0,1-1.11-2.68c0-1.42-.65-3.05.73-4.29.13-.11-.07-.67-.2-1-.65-1.59-1.35-3.16-2-4.77a3.43,3.43,0,0,1,.07-1.3c.37.28.93.48,1.07.85q1.9,4.77,3.66,9.6a9.49,9.49,0,0,1,.27,2.09Z"/><path class="cls-1" d="M94.53,366.41a10,10,0,0,1-.67-1.12c-.79-1.84-1.59-3.67-2.29-5.53a10.56,10.56,0,0,1-.3-2.05,5,5,0,0,0-.3-1.14c-.81-2-1.68-4.06-2.45-6.11-.15-.39.07-.91.12-1.37.34.27.83.48,1,.84,1.42,3.26,2.88,6.5,4.12,9.83A36.56,36.56,0,0,1,95,365.12a6.08,6.08,0,0,1,0,1.13Z"/><path class="cls-1" d="M95,337.24c1.6,3.64,2.55,7.63,6.78,9.75-.65.24-.85.39-1,.35-1.48-.47-3-.89-4.42-1.48a2,2,0,0,1-.91-1.29c-.31-1.38-.46-2.8-.69-4.2C94.64,339.35,94.16,338.32,95,337.24Z"/><path class="cls-1" d="M175.24,348.79l-1.29-4-.25,0c-.07,1.34-.16,2.66-.19,4s0,2.65,0,4l-.32.05c-.12-.14-.31-.25-.36-.41-.5-1.78-.92-3.58-1.47-5.34-.73-2.31-1.26-4.79-4-5.69-.25-.09-.57-.58-.51-.79s.47-.51.78-.59a28.37,28.37,0,0,0,4.37-1.18c2.15-1,4.14-2.38,6.23-3.54a23.29,23.29,0,0,1,2.35-1c.08.8.2,1.6.23,2.39a8,8,0,0,1-.86,4.72c-.46.77-.09,2-.09,3.06,0,.32,0,.64,0,1,0,2.79,0,2.77-2.69,2.94A14.38,14.38,0,0,0,175.24,348.79Z"/><path class="cls-1" d="M179.45,322.49c.33,2,.66,3.69-1.21,5a50,50,0,0,0-4.39,3.93c2.66-.16,4.49-1.78,6.26-3.51l.33.23c-.23.66-.46,1.31-.69,2,1.29.81,1.27,1.86-.08,2.82a28.34,28.34,0,0,1-9.66,4.61,6.91,6.91,0,0,0-1.75,1c-.64.38-1,.22-1-.53-.06-3.27-.13-6.55-.15-9.82,0-.25.43-.53.69-.74.1-.07.31,0,.47,0,4,.74,7.08-.77,9.71-3.61C178.36,323.42,178.83,323.05,179.45,322.49Z"/><path class="cls-1" d="M92.51,342.07c-.26,1.07-.85,1.52-1.65,1.2a6.83,6.83,0,0,1-2.78-1.69A18.23,18.23,0,0,1,86,337.71c-.37-.8.08-1.23.85-.95a13,13,0,0,1,4.08,1.89C91.78,339.41,92,340.9,92.51,342.07Z"/><path class="cls-1" d="M98.73,331.41c-1.31.43-2.09-.25-2.87-1.18-2.32-2.77-2.25-5.92-1.54-9.17.18-.83,1.3-1,2.19-.57,1.09.53,2.25.92,3.37,1.39a2.53,2.53,0,0,0,2.36-.32,12.28,12.28,0,0,1,2.32-.82c1.15-.34,1.71.51,2.18,1.27.13.21-.28,1.09-.5,1.11-.92.1-1.11.76-1.43,1.41-.91,1.8-1.83,3.59-2.81,5.35A2.72,2.72,0,0,1,98.73,331.41Zm-1.16-7c0,2,.43,2.95,1.21,3a2,2,0,0,0,1.83-1.41c.06-.76-1.44-2.39-2.22-2.26C98,323.79,97.68,324.31,97.57,324.41Z"/><path class="cls-1" d="M69,315.27l1.78-2.33C71.25,315.12,70.72,315.64,69,315.27Z"/><path class="cls-1" d="M159.41,300.9a5.66,5.66,0,0,1-1,1.17c-.11.07-.75-.36-.9-.67-1.09-2.34-2.12-4.71-3.17-7.07a1.21,1.21,0,0,1-.17-.44,6.71,6.71,0,0,1,.09-.89c.3.12.73.14.88.36.91,1.3,1.82,2.61,2.61,4C158.37,298.45,158.83,299.64,159.41,300.9Z"/><path class="cls-1" d="M159,298.36,154.76,291a10.3,10.3,0,0,1-1.19.85,1.92,1.92,0,0,1-.76,0,2.78,2.78,0,0,1,.17-.73c.87-1.34,1.74-2.67,2.64-4,1.25-1.82.86-3.52-.27-5.21-.73-1.09-1.42-2.19-2.08-3.32-.46-.77-.05-1.4.4-2.07a15.92,15.92,0,0,0,3-11.68c-.29-1.87-1.41-3.62-2.26-5.66-1.94,3.86-2,7.57-1.63,11.31a11.16,11.16,0,0,0,.86,2.08,6.37,6.37,0,0,1,.14,1.45l-1.25-.32-.36-.08c-.71.64-.17,1.11.18,1.64a2.58,2.58,0,0,1,.2.86,2.55,2.55,0,0,1-.88.15,3.48,3.48,0,0,0-3.83,2.94,4.57,4.57,0,0,0,.23,1.76c.37,1.06.69,1.13,1.67.61a14,14,0,0,1,0-2.52,1.1,1.1,0,0,1,2-.61c.9.91,2,1.68,2.05,3.24,0,.62.8,1.23,1.29,1.8,1.2,1.38,1.07,2.36-.72,3.68l-.11-1.6c-.26.51-.46,1-.73,1.39a3.09,3.09,0,0,1-1.22,1.07V286.2c-1.17.13-1.31.08-1.53-1-.17-.88-.17-1.8-.26-2.76-1,.23-1.48.68-1.37,1.73.08.79-.12,1.61,0,2.37.38,2,.52,2.14,2.42,3.57a14.28,14.28,0,0,1,1-1.39c.17-.18.52-.18.79-.27,0,.26.09.57,0,.76-.57,1-1.2,1.9-1.76,2.78l4.44,9.62c.06.14.16.34.27.37,1.71.46,1,1.48.73,2.57-.84,3-3.13,4.44-5.65,5.63a4.87,4.87,0,0,1-4.29-.39c-1.34-.66-2.06-3.73-1.17-5a20.33,20.33,0,0,0,3.46-6.91,2.78,2.78,0,0,0,0-1.35c-1.43,2.86-2,6.16-5.14,8.43a7.16,7.16,0,0,1,.18-1.25c.79-2.09,1.73-4.13,2.38-6.26a15.29,15.29,0,0,1,3.5-5.63c.38-.42.46-.69-.07-1-2.19-1.47-2.72-3.68-2.71-6.15a9.8,9.8,0,0,0-.42-2.25,6.83,6.83,0,0,1-.49-1.83c.27-3.48-1.42-6-3.72-8.35-.82-.82-1.7-1.58-2.55-2.36s-.75-1.28.08-1.87c1.63-1.15,3.26-2.3,4.87-3.47.67-.49,1.3-1,1.95-1.56.18-.14.35-.38.56-.42,2.35-.46,3.49-2.56,5.18-3.89,1.28-1,1.6-1.17,2.48.25a17.88,17.88,0,0,1,2.78,9.17,51.44,51.44,0,0,1-.43,5.23,71.21,71.21,0,0,0,.72,16.37c.35,2.24.85,4.45,1.18,6.69a7.41,7.41,0,0,1-.24,2Zm-6.29-16.92c-1.18.3-1.28.7-.53,2Z"/><path class="cls-1" d="M143.4,303.24c-1.2-1.95-2.62-3.78-2.87-6.2-.34-3.41-.86-6.77-.36-10.25.28-2-.32-4.12-.41-6.19s0-4.05,0-6.08c0-.24.2-.47.31-.71.26.13.62.19.77.41,1,1.36,1.94,2.61,2,4.55,0,2.8,0,5.69,1.14,8.37.36.84.85,1.62,1.15,2.47a23.41,23.41,0,0,1,.63,2.63l.31,0c0-.75,0-1.5,0-2.24a2.89,2.89,0,0,1,.35-.84,3.6,3.6,0,0,1,.78.41c1.67,1.59,1.76,2.5,0,4.48a12,12,0,0,0-2.65,4.89c-.23.84-.32,1.72-.48,2.58-.1.57-.19,1.13-.28,1.7Z"/><path class="cls-1" d="M136.64,312.21c-2.57-2.93-2.79-12.84-.45-14.89a3.67,3.67,0,0,1,.39.8c.45,2.43,1,4.85,1.23,7.3a9.86,9.86,0,0,1-.62,2.94c-.15.69-.32,1.38-.43,2.07C136.68,310.92,136.69,311.41,136.64,312.21Z"/><path class="cls-1" d="M140.14,328.31a10.75,10.75,0,0,1-2.07-.6,9.85,9.85,0,0,1-4.55-5.49c-.08-.23.08-.56.13-.85a4.78,4.78,0,0,1,.84.25,1,1,0,0,1,.39.44,14.45,14.45,0,0,0,4.91,5.13,3.07,3.07,0,0,1,.56.67Z"/><path class="cls-1" d="M135.13,130.24c-.71-.65-1.25-1.09-1.74-1.6-1.11-1.18-1-1.87.49-2.41.75-.28,1.51-.53,2.25-.83s1-.14,1.27.57c.35,1.1.81,2.17,1.13,3.27a1.51,1.51,0,0,1-.28,1c-.39.7-.93,1.33-1.26,2.06-.44,1-.71,2-1.11,3a2.38,2.38,0,0,1-3.08,1.45A6.28,6.28,0,0,1,128,132.1c-.6-1.92-1.1-2.21-3-1.67-.18,0-.37.08-.69.14v-4.9a3.34,3.34,0,0,1,.76.39,5.37,5.37,0,0,0,4.76,1.39,1.45,1.45,0,0,1,1.85,1A3.27,3.27,0,0,0,135.13,130.24Z"/><path class="cls-1" d="M120.87,252.44c.07-.74.12-1.66.28-2.55.06-.35.32-.89.56-.93a1.3,1.3,0,0,1,1.1.43,3.65,3.65,0,0,1,.6,1.84,6,6,0,0,1-.53,2.42,2,2,0,0,1-1.33,1c-.88.06-.64-.78-.68-1.34C120.86,253.09,120.87,252.85,120.87,252.44Z"/><path class="cls-1" d="M162.83,212.06c-6.39-3.47-6.9-6.22-5.38-11.14.33.62.78,1.07.79,1.54.06,2.38,1.59,4,2.74,5.88.59.95,1.15,1.91,1.7,2.88A3.35,3.35,0,0,1,162.83,212.06Z"/><path class="cls-1" d="M160.87,333.86c.8-.07,1,.29,1,1.06.08,1.68.31,3.35.53,5a1.67,1.67,0,0,0,.44.81c.71.88.64,1.05-.45,1.44-2.18.78-4.29,1.78-6.52,2.39a21.19,21.19,0,0,1-5.16.62c-2.34.05-4.8-.59-7-.06a16.28,16.28,0,0,1-6.33.31,27.3,27.3,0,0,0-10.59.69c-2.28.58-4.43,1.05-6.81-.3-2-1.15-4.52-1.55-6.84-2.15a5,5,0,0,0-2.68,0c-1.85.6-3.62,1.42-5.42,2.18a4.12,4.12,0,0,1-4.37-.68A12.27,12.27,0,0,1,98,341.64a41.3,41.3,0,0,1-1.92-4.77c-.55-1.41-1.11-2.82-1.63-4.24a4.29,4.29,0,0,1-.12-1.09,3.11,3.11,0,0,1,1.08.26,5.75,5.75,0,0,0,6,.49,5.28,5.28,0,0,0,2.7-2.59,34.07,34.07,0,0,1,2.07-3.28l.51,0a9.52,9.52,0,0,1,.83,2c.72,4.24,2.7,8,4.46,11.87.32.68,1.45,1,2.2,1.49l.27-.33c-1-2.1-2-4.24-3.14-6.31a19,19,0,0,1-2.45-11.66c.31-2.26-.83-3.62-2.08-5.06-.15-.17-.7-.09-1,0a12.48,12.48,0,0,1-2.38.67,46.86,46.86,0,0,1-6.91-.06A5.51,5.51,0,0,1,93,317.4a29.89,29.89,0,0,1-3-5.64c-.23-.49,0-1.07.74-1.22,2.47-.46,4.94-1,7.39-1.53,1-.23,1.33.11,1.64,1,.47,1.3,1.17,2.53,1.65,3.83a1.44,1.44,0,0,1-.22,1.28c-1.5,1.41-5.25,1-6.55-.62a7.13,7.13,0,0,0-1-.81,3.49,3.49,0,0,0,3,3.16c2.71.56,4.64-.7,6.39-2.45.14-.15,0-.69-.12-1-.63-1.19-1.38-2.32-2-3.53a3.53,3.53,0,0,1,0-1.42l.51-.06c.15.34.28.68.45,1,.53,1,1,2,1.63,2.92.14.22.62.23.94.33a2.69,2.69,0,0,0-.12-1,24,24,0,0,1-1.9-3,8.4,8.4,0,0,1-.34-2.94c0-.35.31-.71.48-1.07l.38.06a4.45,4.45,0,0,1,.16,1.28c-.39,2.12,1,3.43,2.12,4.88a.72.72,0,0,0,.61.19c.82-.24,1.57-2.08,1.26-2.91a17.17,17.17,0,0,1-.74-2.27c0-.26.25-.6.39-.9a3.92,3.92,0,0,1,.67.68c.8,1.37,1.57,2.76,2.38,4.19.91-.45,1.17-.71.49-1.47A15.13,15.13,0,0,1,108,305c-.23-.47.21-1.26.49-1.83l-.52-2.07c-.89,0-2.1,0-2-1.73-2,1.61-4,3-5.73,4.6a3.47,3.47,0,0,0-.61,2.13A1.92,1.92,0,0,1,97.87,308a38.17,38.17,0,0,0-6.19,1.28c-1.33.49-2.4,1.72-3.5,2.71-.22.2-.15.88,0,1.26.55,1.53,1.19,3,1.79,4.56l.55,1.36-.26.24-1.36-.83-.25.14c.66,1.23,1.31,2.46,2,3.77l-.92.62c.76,1.28,1.53,2.54,2.26,3.81a3.49,3.49,0,0,1,.46,1.22c.38,2.93.66,5.87,1.08,8.8.3,2.09.79,4.16,1.14,6.25a11.22,11.22,0,0,1,0,1.74l-.49,0a7.17,7.17,0,0,1-.36-.91,20.84,20.84,0,0,1-.77-3.26,4.12,4.12,0,0,0-2.11-3.09,7.19,7.19,0,0,1-1.39-1.12c-1.12-1.37-2.35-2.47-4.27-2.53-.32,0-.79-.54-.91-.92-.81-2.67-1.52-5.38-2.34-8.05a21.17,21.17,0,0,0-1.25-2.8c-.07-.15-.36-.33-.47-.28-1.35.53-1.53-.6-1.91-1.37s-.62-1.45-.92-2.18l-.31.07a22.42,22.42,0,0,1,.62,2.41,4.86,4.86,0,0,1-.14,1.4c-.41-.25-1.05-.4-1.19-.75-.63-1.6-1.15-3.24-1.65-4.88a1,1,0,0,1,.3-.82,144.62,144.62,0,0,0,11.43-10.15,15.13,15.13,0,0,1,4.14-2.58A33.72,33.72,0,0,0,101,295.3c1.26-1.42,3-2.43,4.31-3.78a27.93,27.93,0,0,0,5.61-9,5.73,5.73,0,0,0,.18-1.7c-.31,0-.43,0-.46.05a49.85,49.85,0,0,0-3.33,5.49c-1.6,3.53-4.42,5.66-7.68,7.41a15.07,15.07,0,0,0-2,1.43c-.2.16-.45.54-.39.69.52,1.28-.48,1.62-1.25,2.07-1.3.76-2.65,1.45-3.94,2.22a11.42,11.42,0,0,0-1.75,1.26c-2.63,2.31-5.26,4.63-7.85,7-.79.71-1.43,1.6-2.18,2.35a5.89,5.89,0,0,1-6.2,1.48,3.32,3.32,0,0,1-.9-.64,4.1,4.1,0,0,1,.71-.73c2.28-1.39,4.65-2.64,6.83-4.17a29.1,29.1,0,0,0,4.86-4.21c2.3-2.52,5.33-4.13,7.73-6.5a25.34,25.34,0,0,1,2.33-2.07c.7-.53,1.55-.87,2.26-1.39a7.23,7.23,0,0,0,1.73-1.62q4.92-7.31,9.74-14.69a14,14,0,0,0,.84-2.19,4,4,0,0,1,.58-.81c.23.24.58.43.66.71a12.51,12.51,0,0,1,.5,2.34c.34,3.34.6,6.68.95,10a3,3,0,0,1-1.77,3.2,16.94,16.94,0,0,0-1.53,1c.07.21.08.33.13.35,2,.84,2.11,2.36,1.64,4.17-.63,2.37-1.21,4.75-1.82,7.18a10.18,10.18,0,0,0,1.2-2c.65-2,1.18-4.07,1.71-6.13.43-1.67.39-1.67-1.26-2.84a7.44,7.44,0,0,1,1.21-.74,2,2,0,0,0,1.38-2.13,75.76,75.76,0,0,0-.81-16.62,160,160,0,0,1-1.45-28.35,24.94,24.94,0,0,1,.26-4.42,22.77,22.77,0,0,1,1.46-3.79l.45,0a4.76,4.76,0,0,1,.37,1.24c.09,3.39.14,6.79.17,10.18a2.36,2.36,0,0,1-.34,1.14,7.24,7.24,0,0,0-.5,5.13q.7,3.53,1.46,7a3.6,3.6,0,0,0,.3.7l.38-.09a38,38,0,0,1-.84-4.82,42.62,42.62,0,0,1,.28-5.52c0-.13.42-.23.65-.35.13.27.38.54.38.81,0,.91-.09,1.83-.17,2.75s.35,1.14,1.24,1.18c.25-1.63.47-3.24.74-4.84.22-1.27.25-2.66,1.74-3.33a12.36,12.36,0,0,1-.13-1.73c0-.26.32-.5.49-.75.22.19.57.35.64.58a9.51,9.51,0,0,1,.5,2.22c0,.28-.41.6-.61.87-.2,1.83-.45,3.71-.61,5.59-.1,1.23-.08,2.47-.11,3.71,0,.2.06.46,0,.59-1.13,1.4-.8,3.14-1,4.7a46.58,46.58,0,0,0,.19,6.46,3.2,3.2,0,0,0,.28.86l.41,0c.54-3.06,1.09-6.13,1.63-9.19h.53a7.77,7.77,0,0,1,.21,1.77c-.38,3.34-.61,6.71-1.29,10s-.25,6.2-.14,9.31c0,1.23,0,2.46,0,3.69l.35.05c.24-1.09.49-2.18.71-3.28.37-1.8.74-3.59,1-5.4s.54-3.87.84-5.81c.34-2.17.69-4.34,1.1-6.5a9.77,9.77,0,0,1,.79-1.77c.42.86.55,1.6.94,1.78s1.16-.08,1.75-.08a1.1,1.1,0,0,1,1.18,1.23c.05,1.87.08,3.75.06,5.63,0,.82-1,1.47-2,1.45s-1.12-.68-1.15-1.48a19,19,0,0,0-.38-3.09c-1.1,1.45-1.77,10.1-1,11.86.22-1.43.37-2.76.66-4.06a2.43,2.43,0,0,1,2.72-2.16c1.22,0,1.67.47,1.54,1.69-.26,2.52-.49,5.05-.79,7.57s-.63,5-1,7.48a12.26,12.26,0,0,1-.69,2.07l-.35-.07v-2l-.39-.11c-.17.46-.38.92-.51,1.39-.52,1.93-1,3.87-1.52,5.79a2.19,2.19,0,0,1-.71,1.11c.26-5.67,2-11.09,2.83-16.67l-.37-.12c-.4,1.25-.88,2.48-1.19,3.75-.76,3.14-1.52,6.28-2.14,9.45-.71,3.61-1.4,7.23-1.84,10.87-.62,5.19-1.25,10.41-.6,15.66.06.47.14.93.25,1.68a4.18,4.18,0,0,1,.39-.64c.19-.21.41-.4.62-.6a2.73,2.73,0,0,1,.52.73,17.15,17.15,0,0,1,.45,2c.57,3.27,2.46,5.77,4.66,8.09a5.52,5.52,0,0,1,.82.86,4.36,4.36,0,0,1,.28,1.09c-.36.06-.77.27-1.07.16-1.35-.48-2.68-1-4-1.58a3.26,3.26,0,0,0-1.16-.33,3.73,3.73,0,0,0,.63.57c1.86,1,3.6,2.23,5.86,2.26.48,0,1.05.55,1.42,1a4.32,4.32,0,0,0,4.12,1.67c.28,0,.62,0,.81-.16,1.81-1.48,4-1.37,6.16-1.58.91-.09,1.35-.31,1.51-1.26.28-1.65.46-1.7,2.18-1.56,2.27.18,4.55.37,6.82.47s4.2-.66,5-3.16c.5-1.56,1.34-3,1.8-4.57a9.9,9.9,0,0,0,.15-3.41c-1.63,2.4-4.23,2.54-6.56,3.2-1.27.36-2.57.6-3.85.89a7.39,7.39,0,0,1-5.57-1.36,22,22,0,0,1-7.38-7.69,20.51,20.51,0,0,1-2.66-12.9,124.87,124.87,0,0,0,.35-17.83c-.06-1.29-.66-2.54-.84-3.83-.24-1.72-.35-3.46-.43-5.2,0-.27.42-.56.65-.84a3.66,3.66,0,0,1,.39.89c.35,2.53.83,5,1,7.59a129.53,129.53,0,0,1,.3,14.47c-.29,4.49-1,8.93.55,13.28a24.93,24.93,0,0,0,2.27,4.34c1.74,3,4.65,4.6,7.63,6.26l-1-2c-1.32-2.74-2.78-5.41-3.89-8.23a29.37,29.37,0,0,1-1.12-5.49,1.46,1.46,0,0,1,.38-1,38.48,38.48,0,0,0,6.63,12.76l1.12-1.57,1.18,1.28c.29-1,.54-1.9.84-2.8a4,4,0,0,1,.56-.82,3.72,3.72,0,0,1,.62.9,15.18,15.18,0,0,1,.29,1.81l.39.05c.36-1.1.67-2.23,1.09-3.31a8,8,0,0,1,.87-1.41l1.3,1.21c.25-.5.52-1.1.86-1.66a5.35,5.35,0,0,1,.71-.8,8.53,8.53,0,0,1,.61.95,7,7,0,0,1,.28,1.14,31.47,31.47,0,0,0,1.37-3.24c.53-1.75.94-3.54,1.4-5.32a3.88,3.88,0,0,1,.23-.92,5.1,5.1,0,0,1,.69-.86c.11.34.36.68.33,1-.18,1.71-.46,3.41-.64,5.11-.32,3.1-.59,6.21-.86,9.32a1.69,1.69,0,0,0,.29,1.1c.13-.29.29-.57.39-.87.77-2.44,1.56-4.88,2.28-7.33a6.63,6.63,0,0,0,.26-2.12c-.07-2-.14-3.93-.39-5.87a30.85,30.85,0,0,1,.34-7.56,13.43,13.43,0,0,0-.46-3.4c-.11-.71-.31-1.41-.35-2.12-.47-7.92-1.36-15.82-.7-23.78a12.17,12.17,0,0,0-3.13-9.14,5,5,0,0,1-.92-1.25,2.2,2.2,0,0,0-2.51-1.37c-1.8.13-3.53.37-4.82,2a28,28,0,0,1-2.86,2.54c-2,1.89-3.76,4-5.84,5.79-1.28,1.11-1.79,3.14-2.53,4.81a26.17,26.17,0,0,0-2.41,7.59,1.21,1.21,0,0,1-.28.52c-.06.07-.21.09-.45.19-1.05-3.43-.75-7-1.19-10.44-.53,1.89.15,3.89-.6,5.73l-.35,0a6.43,6.43,0,0,1-.36-1.26c-.23-2.7-.4-5.42-.64-8.13a2.21,2.21,0,0,0-.45-1.29,1.3,1.3,0,0,1,.13-2.16,12.07,12.07,0,0,1,5.07-2.53,18.38,18.38,0,0,0,5.29-2c2.72-1.64,5.23-3.62,7.84-5.43,3.89-2.68,6.43-.23,7.46,3.38.51,1.82,1.75,3,2.73,4.41.08.11.74,0,.89-.17a21.25,21.25,0,0,0,2.07-3c.4-.77.85-1.23,1.65-.86,1,.43,1.81,1.07,2.73,1.59,2.5,1.42,4.37,3.81,7.39,4.47,2.48.53,3.38,2.17,3.33,4.8a33.27,33.27,0,0,0,.51,4.52,6.9,6.9,0,0,1,.18,1.42,3.83,3.83,0,0,1-.42,1.12c-.27-.26-.66-.46-.78-.77q-1.51-3.65-2.94-7.34a8.78,8.78,0,0,0-.65-2,3.2,3.2,0,0,0-1.71-.94c-.14,0-.74.82-.73,1.26.06,3.35.16,6.71.39,10.06a8,8,0,0,0,.91,2.76c.64,1.33,1.46,2.57,2.1,3.9a3.23,3.23,0,0,1,.3,1.73,57.78,57.78,0,0,0,.58,15.43c.89,6,2,12.07,3,18.11.21,1.26.48,2.51.61,3.78a1.88,1.88,0,0,1-.44,1.39,23.5,23.5,0,0,1-4.31,3.57c-2.11,1.15-4.52.76-6.79.24-.77-.17-.71-.75-.16-1.25a5.5,5.5,0,0,0,1.72-3.7,4.19,4.19,0,0,1-.45.84,7.66,7.66,0,0,1-.92.77,3.7,3.7,0,0,1-.29-1.25c.1-.66.44-1.29.59-2q1.69-7.48,3.36-15a2.87,2.87,0,0,0-.09-1.47c-.49,1.68-1,3.34-1.44,5a86.52,86.52,0,0,0-2.28,9.68,15.77,15.77,0,0,1-2.79,6.73c-.67,1-1,2.23-1.67,3.27-1.87,3-3.81,6-5.72,9.06l.4.28c1-1.41,2.1-2.8,3.1-4.24s1.88-2.93,2.82-4.39l.59.23-.36,2.62a6.21,6.21,0,0,1,.62,1.8c0,1.71-.11,3.43-.14,5.15a17.27,17.27,0,0,0,.17,1.75,6,6,0,0,1,0,1.12c0,.06-.54.18-.6.1a1.9,1.9,0,0,1-.5-1c0-2.2,0-4.4,0-6.6v-1.36c-1.12.55-2,1.08-2.36,2.27-1.57.85-1.86,2.29-1.67,3.88,0,.27.51.72.72.68s.81-.43.84-.7C160.89,336.46,160.86,335.16,160.87,333.86ZM167,297a4.53,4.53,0,0,0,.37-.89,45.52,45.52,0,0,0,.27-13.49c-.86-6.89-1.54-13.81-2.3-20.71a8.55,8.55,0,0,0-.27-1.11l-.45,0a12.24,12.24,0,0,0-.19,1.91c.15,3.95.24,7.91.55,11.86a62.23,62.23,0,0,1-.31,11.82,4.35,4.35,0,0,1-.23.78l-.35-.05a44.27,44.27,0,0,0,0-12c-1.36,3.31-2.73,17.47-1.89,19.55.13-.6.23-1,.31-1.42a25.06,25.06,0,0,1,.48-2.47c.11-.36.51-.63.77-.94.17.4.49.79.48,1.18,0,.83-.28,1.67-.25,2.5,0,1.2.26,2.39.4,3.59l.58,0a6.72,6.72,0,0,0,.31-1.29c.07-2.55.1-5.11.17-7.66a4.14,4.14,0,0,1,.21-.91l.46,0A26.5,26.5,0,0,0,167,297Zm-51.46-34.85-.66,0c.27,3.38.21,6.83.9,10.12a55,55,0,0,1,1,14.06,50.24,50.24,0,0,1-1.68,9.53c-.89,3.6-2.1,7.11-3.18,10.67-.06.21-.1.43-.14.64l.26.14c.53-.8,1-1.62,1.6-2.41a15.39,15.39,0,0,0,2.88-5.6c.36-1.72.91-3.4,1.22-5.13a21.76,21.76,0,0,0,.31-4c0-3.6-.08-7.19-.15-10.78,0-1.55.36-3.34-.26-4.62-1.93-4-1.42-8-.74-12.07a50.3,50.3,0,0,1,1.45-5.19c-.49-.52.16-1.92-1.07-2.7-.08.37-.13.55-.16.74-.27,1.81-.5,3.63-.83,5.44C116.25,261.35,115.83,261.73,115.57,262.14Zm47.61,59c1-.92,5.52-17.06,5.47-19.06-.87-.24-1,.34-1.24,1a65.83,65.83,0,0,1-2.52,7.73C163.41,314.09,163.67,317.53,163.18,321.17Zm-82.4-8,0,.24c.22.07.48.25.64.18,1.56-.62,3.09-1.28,4.63-1.93a.48.48,0,0,0,.21-.12,12.56,12.56,0,0,1,3.21-2.71,25.41,25.41,0,0,0,3.84-3.52c2.53-2.36,5.06-4.74,7.62-7.08a7.42,7.42,0,0,1,2.43-1.85c1.28-.4,1.48-1.37,1.85-2.38a26,26,0,0,0-3.86,3c-2,1.85-3.72,4-5.89,5.57A69.77,69.77,0,0,0,89,307.85a52.57,52.57,0,0,1-5.66,4.4A10.09,10.09,0,0,1,80.78,313.14Zm31.78,20.38a7.27,7.27,0,0,1,.81,2c.17,2.65,2.71,3.07,4.09,4.61-.34-1.47-.82-2.85-1.24-4.24-.09-.33-.13-.92.06-1.06,1.19-.89.57-1.94.13-2.77-.24-.46-1.1-.62-1.71-.84-.08,0-.45.36-.46.56A1.57,1.57,0,0,1,112.56,333.52Zm8.06,10.19.36.11c.57-1.33,1.15-2.66,1.69-4a.65.65,0,0,0-.1-.56c-1.28-1.15-2.57-2.28-4-3.51A26.75,26.75,0,0,0,119,340,22.91,22.91,0,0,0,120.62,343.71Zm17.82-83.19.23.54a20.18,20.18,0,0,0,3.63-1.63,17.33,17.33,0,0,1,5.48-2.79c1.07-.29,2.14-.65,3.19-1a14.8,14.8,0,0,0,1.38-.69l-.08-.39a7.57,7.57,0,0,0-1.06-.18,11.09,11.09,0,0,0-6.17,2c-.68.39-1.6.7-1.94,1.31a5.37,5.37,0,0,1-3.23,2.27C139.39,260.11,138.92,260.32,138.44,260.52ZM116.09,329a8.87,8.87,0,0,0-.37-2.62,13.54,13.54,0,0,1-1.19-7,7.61,7.61,0,0,0-.2-1.51C112.49,321.2,113.31,326.79,116.09,329Zm-12.64,11.83c2.15-1.27,2.09-3.64.06-6.14-1.36.7-1.72,1.05-1.5,1.84C102.41,337.93,102.94,339.31,103.45,340.82Zm8.69-19.44c.55-2.28,1-4.37,1.56-6.47l-.33-.08C111.93,316.31,111.23,319.6,112.14,321.38Z"/><path class="cls-1" d="M12.69,287.33c-.39-.76-.87-1.09-1.66-.81L4,289l-1.14.4c.19-3,.35-5.77.59-8.54a1.85,1.85,0,0,1,.84-1.05c1.73-1.14,3.51-2.22,5.26-3.32.35-.22.69-.46,1.21-.8a5.62,5.62,0,0,0-6.38,1.58c-.3-1.81,0-2.34,1.34-3,1.23-.56,2.48-1.07,3.72-1.61.38-.17.74-.38,1.41-.71a6.58,6.58,0,0,0-5.94,1.25c.15-1.08.23-1.83.35-2.58.37-2.12.82-4.23,1.09-6.36a2,2,0,0,1,1.14-1.65c1.44-.83,2.86-1.7,4.23-2.68-1.87-.34-3.19.87-4.63,1.73-.4-1.48.86-2.68,5.29-5.13a2.5,2.5,0,0,0-2.45.2c-.81.4-1.56.92-2.67,1.59,2.07-12.91,4.49-25.5,2.68-38.44.28.07.46.07.49.13.88,1.94,1.94,3.77,2,6,.15,4.51.46,9,.81,13.52.28,3.61.81,7.21,1,10.83.12,1.86-.2,3.74-.24,5.62-.13,6.67-.28,13.34-.3,20,0,4.6.09,9.2.37,13.79a47,47,0,0,0,1.18,6.82c1.53,7.24,3.11,14.47,4.62,21.72a1.12,1.12,0,0,1-.47.94,18.76,18.76,0,0,1-2.32.94,15,15,0,0,0-8.48,7.83c3.79-2.63,7.1-6,11.69-7.39.45,1,.47,1.56-.7,1.93a25.47,25.47,0,0,0-8.42,5.12c-1.11.91-2.16,1.87-3.4,2.95-.27-.79-.53-1.4-.69-2.05C6,324.08,5,319.5,3.89,314.94a1.54,1.54,0,0,1,.52-1.67,43.33,43.33,0,0,1,10.85-7.54,5.14,5.14,0,0,0,.51-.29c.06,0,.07-.14.13-.29-1.7-1.15-3.22.24-4.9.22l4.46-2.51c-2.61-1.44-7.85,1.32-10.1,5.4l2.5-1.1.13.25-4.75,3.52a18.52,18.52,0,0,1-.86-6.55c.11-2.15.17-4.32.08-6.47a3.14,3.14,0,0,1,1.59-3c2.44-1.62,4.69-3.62,7.79-4l.08-.41c-.59-.24-1.23-.75-1.77-.66A11.17,11.17,0,0,0,6.82,291c-1.42.76-2.72,1.74-4.13,2.66,0-1-.11-1.11,4.27-4C8.61,288.55,10.68,288.11,12.69,287.33Z"/><path class="cls-1" d="M9.88,351.68a27,27,0,0,1-.6-4.76c.13-3.35.64-6.68.76-10A7.61,7.61,0,0,0,9,333.54a1.72,1.72,0,0,1,.59-2.49,39.35,39.35,0,0,1,11-6.48,1.56,1.56,0,0,1,.44,0c0,.3.06.6.07.9a95.16,95.16,0,0,1-1.22,16.94,1.84,1.84,0,0,1-.49,1c-3,2.74-5.95,5.45-8.94,8.17C10.31,351.65,10.2,351.63,9.88,351.68Zm7-7.28-.21-.28a8.37,8.37,0,0,0-5.13,4.52l.25.28Z"/><path class="cls-1" d="M.69,212.68c-.12-.87-.28-1.75-.35-2.63a113.55,113.55,0,0,1,.3-20.94c.15-1.35.14-2.72.34-4.06a18.77,18.77,0,0,1,.7-2.12c.21-.8.25-1.65.5-2.43a6.35,6.35,0,0,1,.91-1.34,8.23,8.23,0,0,1,.82,1.43c.51,1.45,1,2.92,1.37,4.42a4.46,4.46,0,0,1,.07,2.29,96.36,96.36,0,0,0-3.43,19.8c-.16,1.84-.5,3.68-.76,5.52Z"/><path class="cls-1" d="M17.9,368.21c-.09-1.33-.19-2.66-.26-4a8.1,8.1,0,0,1,0-2A5.51,5.51,0,0,0,15.15,356a20.56,20.56,0,0,0-2.85-1.44,15.25,15.25,0,0,0-1.49-.51l8.54-8.24c0,.49.09.74.09,1,0,3.56-.18,7.13,0,10.68a54.37,54.37,0,0,0,1.32,7.77,1.43,1.43,0,0,1-.67,1.78c-.64.39-1.23.86-1.84,1.29Z"/><path class="cls-1" d="M1.15,214.16c.61.77,1.19,1.57,1.83,2.31.77.9,1.63,1.74,2.38,2.66.37.44.9,1.06.83,1.51-.37,2.19.74,4,1.49,5.83a14,14,0,0,1,1.1,8.7c-.12.53.05,1.12,0,1.67a2.93,2.93,0,0,1-.42.9c-.23-.23-.59-.42-.68-.69-.53-1.72-1-3.45-1.48-5.18A56.43,56.43,0,0,0,1.1,219.51a4.79,4.79,0,0,1-.22-2c0-1.09,0-2.18,0-3.28Z"/><path class="cls-1" d="M4.61,201.36a7.62,7.62,0,0,1,.44,1.83,32.33,32.33,0,0,0,.84,7c.37,1.74.56,3.39,1.82,4.76a1.61,1.61,0,0,1,.21,1.14c-.16,1.26-.39,2.52-.62,4a4.43,4.43,0,0,1-.7-.56c-1.27-1.69-2.54-3.38-3.78-5.1a1.52,1.52,0,0,1-.34-1c.32-3.44.68-6.89,1.07-10.33a8.41,8.41,0,0,1,.58-1.71Z"/><path class="cls-1" d="M22.34,370.44c.92,2.48,1.6,4.72,2.56,6.84,1.38,3,3.07,5.94,4.42,9,.91,2,1.47,4.24,2.19,6.36l-.43.19a9.79,9.79,0,0,1-.54-1c-2.45-6-6.09-11.27-10-16.38-.6-.8-.75-1.35-.09-2.16A32.73,32.73,0,0,0,22.34,370.44Z"/><path class="cls-1" d="M119.18,238.93c0,.45,0,.91-.07,1.36-.25,1.61-.49,3.22-.81,4.82,0,.25-.47.42-.72.63-.19-.27-.55-.55-.54-.83.09-7.42-3-14.14-4.74-21.14-.48-1.93-.86-3.89-1.37-5.81a2.49,2.49,0,0,0-.9-1.47c-2.47-1.26-3.75-3.66-5.53-5.56a6.45,6.45,0,0,1-1.32-2.51,2.63,2.63,0,0,1,1.52-3.48c.88-.47,1.78-.9,2.68-1.33a21.52,21.52,0,0,0,7.78-6.63,30.8,30.8,0,0,0,2.42-4.8,7.67,7.67,0,0,1,1-1.6c.18-.23.57-.28.87-.41.1.33.32.67.27,1a7.24,7.24,0,0,1-.51,1.46,18.36,18.36,0,0,1-4.13,6.2c-2,2-3.85,4.07-6.43,5.32a6,6,0,0,0-.89.61c.1.86.22,1.54.26,2.23,0,.95,2.17,3.12,3.12,3.18a1.58,1.58,0,0,1,.8.18,4.83,4.83,0,0,1,.72.83c-.28.19-.55.4-.85.57s-.6.29-.91.43a3.79,3.79,0,0,0,.45.9,76.57,76.57,0,0,1,5.7,6.41,100.59,100.59,0,0,1,5.8,9.62,6.74,6.74,0,0,1,.35,2.91c.08,2.39.12,4.79.11,7.18,0,.67-.27,1.33-.31,2-.07,1.06,0,2.13-.09,3.2a4.16,4.16,0,0,1-.39,1.14c-.31-.26-.78-.46-.91-.79-.65-1.67-1.21-3.38-1.81-5.08-.09-.25-.21-.49-.31-.74Z"/><path class="cls-1" d="M6,167.71a17.31,17.31,0,0,1,2.6-10c.77-1.15,1.24-2.5,1.95-3.7.22-.37.75-.56,1.14-.84a5.77,5.77,0,0,1,.58,1.4c.13,1.1.17,2.21.19,3.32a3.33,3.33,0,0,1-.19,1.49c-1,2-2.25,3.87-3.16,5.9a20.55,20.55,0,0,0-1,4C8,170,7.88,170.59,7,170.71c-.6.08-.93-.1-1-.72S6,168.47,6,167.71Z"/><path class="cls-1" d="M71.91,156.21c2.54.68,5.1,1.29,7.62,2.06A18.64,18.64,0,0,1,83.36,160a40.64,40.64,0,0,1,5.31,3.46,28.54,28.54,0,0,1,3.45,3.74.91.91,0,0,1,.12.85c-.12.17-.55.19-.84.18-.62,0-1.24-.12-1.85-.19l-.11.32a5.73,5.73,0,0,0,.82.49c1.25.56,2.49,1.11,3.75,1.62a14.87,14.87,0,0,1,8.46,8.83,2.11,2.11,0,0,1,.24,1.26c-.48,1.34.33,2.09,1.11,2.91,2.54,2.65,4.91,5.49,5.8,9.1a42.23,42.23,0,0,1,.68,7.14c0,.66-1.86,1.89-2.47,1.65-.21-.09-.36-.39-.47-.62-1.1-2.43-2-5-3.32-7.28-3.26-5.59-6.78-11-10.48-16.34a40.68,40.68,0,0,0-8.91-9.22c-2.88-2.18-6.15-3.85-9.21-5.8s-5.78-3.86-8.72-5.71-5.67-3.43-8.56-5.05c-1.48-.84-3.13-1.39-4.63-2.19-2.2-1.19-4.34-2.5-6.51-3.75a24.47,24.47,0,0,0-3.19-1.7,10.07,10.07,0,0,0-2.59-.39,12.92,12.92,0,0,0-7.36,1.18c-2.77,1.42-5.58,2.73-7.68,5.2-1.88,2.2-3.9,4.3-5.95,6.34-1.55,1.54-3.32,2.85-4.86,4.38a31.62,31.62,0,0,0-2.57,3.27l-.3-.21,10.61-14.58-.33-.31-3.51,3.61c-1.56,1.6-3.12,3.21-4.69,4.79a4.13,4.13,0,0,1-.8.51c-1-4.86,1.44-8.7,3.62-12.91a3,3,0,0,0-2.49,1.85c-.34.86-.65,1.73-1,2.68-.29-.22-.45-.28-.46-.36-.13-2-.3-3.94-.33-5.92a2,2,0,0,1,.74-1.39c1.28-1,2.65-1.92,4-2.86.59-.41,1.2-.79,1.79-1.21a2.14,2.14,0,0,0,.86-2.3,20,20,0,0,1,0-8.68,2.13,2.13,0,0,1,1-1.23c1.53-.68,3.17-1.12,4.68-1.85a34.08,34.08,0,0,0,3.17-2.1c1.26-.77,2.45-1.44,4.13-.83,1,.38,2.36,0,3.56,0a4.46,4.46,0,0,1,3.3,1.16,1,1,0,0,1,.1,1A4.54,4.54,0,0,1,39,123.56c-2.8,1.14-5.64,2.22-8.46,3.33-.8.31-1.08,0-1-.77a10.36,10.36,0,0,0,.36-1.71c-2.05,3.21-3.26,6.78-4.72,10.64,1.39-.54,2.85-.74,3.12-1.94.94-4,4.13-5.4,7.39-6.83a28.6,28.6,0,0,1,8.52-1.79,21.71,21.71,0,0,1,3-.32,21.41,21.41,0,0,1-6.85,4.53,70.84,70.84,0,0,1-8.09,1.86s.08.16.15.16a22,22,0,0,0,11.21-2.51c2.21-1.25,4.46-2.45,6.71-3.64a1.74,1.74,0,0,1,1-.16c3.15.55,6.32,1,9.42,1.76a34.58,34.58,0,0,1,5.3,2.18A3.61,3.61,0,0,1,67,129c1.75,1.56,3.51,3.11,5.23,4.71a3.27,3.27,0,0,1,.52,1,6.12,6.12,0,0,1-1-.22c-3-1.14-5.93-2.32-8.91-3.43-1.34-.5-2.77-.8-4.11-1.31-.72-.27-1.3-.93-2-1.17a11.53,11.53,0,0,0-2.81-.45c-1.91-.12-2.57-.72-2.4-2.68l-9,4.53.08.34c.28.05.56.12.85.16,3.7.59,7.41,1.13,11.09,1.81.72.14,1.33.88,2,1.32.43.28.89.52,1.33.78,1.61,1,3.23,1.9,4.81,2.89a6,6,0,0,1,1,1.12c-5.57-1.87-10.44-4.69-16-5.44l-.26.38A14.09,14.09,0,0,0,49,134.66c1.56,1,3.17,1.86,4.75,2.8a3.87,3.87,0,0,1,.84.67,4.51,4.51,0,0,1,.44.78,3,3,0,0,1-1,.14c-3.59-.78-7.18-1.55-10.76-2.39a2.34,2.34,0,0,0-2.84,1.1,24.27,24.27,0,0,1-2.43,2.7,15.52,15.52,0,0,0,1.55.38c1.78.24,3.57.44,5.35.68a1.42,1.42,0,0,1,.77.29c1.47,1.4,3.11,1.08,4.83.63,2.8-.73,5.55-.14,8.29.45.27.05.51.3,1.09.67-2.28.8-4.6.31-6.28,2h1.1a65.12,65.12,0,0,1,8.14-.09c1.67.17,3.25,1.22,4.86,1.88.37.15.72.34,1.08.51l-.35.46-2.48.87v.29a5.59,5.59,0,0,0,.78.28,26.65,26.65,0,0,1,11.3,4.71,7.53,7.53,0,0,1,1.18,1.38,7.3,7.3,0,0,1-1.84.46c-1.84,0-3.67-.17-5.5-.26ZM25.78,139.87a4.35,4.35,0,0,0-3.88,3c-.24,1-.48,1.94-.7,2.92-.16.7-.29,1.41-.5,2.45,1.08-.69,1.86-1.16,2.6-1.69s1.53-.9,1.69-1.51A43.81,43.81,0,0,0,25.78,139.87Zm3.52,1,6.57-2.44C33.91,137.35,29.91,138.82,29.3,140.87Z"/><path class="cls-1" d="M121.41,195a21.55,21.55,0,0,1,.79,4.29,20.74,20.74,0,0,1-.9,4.17l-.52,0c-.35-.66-.73-1.32-1-2-.82-1.73-1.79-1.91-3.06-.49a1.38,1.38,0,0,0-.21,1.22c.91,1.91,1.91,3.77,2.89,5.64l1,1.89c1-1.44.66-2.91.29-4.65l1.21.77,1.41-.73.14,1.18.63,0,1.22,2.07,1.27-1.72c-.08-.14-.44-.49-.38-.73.15-.55.9-1-.09-1.56-.39-.24-.39-1.11-.57-1.69l-.82.61,1.6-2.19-.23-.28a4.84,4.84,0,0,1-.83.22,5,5,0,0,1-.85-.07,2.45,2.45,0,0,1,.28-.84c.72-.85,1.53-1.62,2.22-2.48a1.26,1.26,0,0,0,.14-1.08,7.6,7.6,0,0,0-1.26-1.89,8.38,8.38,0,0,1-2.57-7.05,2.65,2.65,0,0,0-.13-.77l-.35-.24L122,188l-.46-.25a10.38,10.38,0,0,1,.22-1.24,8.42,8.42,0,0,0,.52-1.45,1.33,1.33,0,0,0-.54-1c-.15-.1-.66.17-.9.39a4,4,0,0,0-.59.93l-.48-.08a21,21,0,0,0,0-2.1,2.82,2.82,0,0,0-.45-1.35c-1.66-2.24-3.7-4.27-5-6.7-2.28-4.21-5.71-7.55-8.2-11.58a37.1,37.1,0,0,0-2.54-3.77c-1.2-1.52-2.52-3-3.84-4.39-2.2-2.38-4.34-4.82-6.68-7s-4.68-4.62-7.65-6.11c-2.43-1.22-4.93-2.29-7.38-3.45-.47-.23-.9-.55-1.34-.82l.14-.34a9.65,9.65,0,0,1,1.3.26c7.45,2.6,14.08,6.43,19,12.78a23.49,23.49,0,0,0,2.58,2.5,1,1,0,0,0,.62.3c2.32-.12,3.73,1.47,5.2,2.84a46.81,46.81,0,0,1,3.83,4.13,6.39,6.39,0,0,1,.77,1.74l-1.67.59c.69.73,1.39,1.52,2.15,2.26,1,1,2.08,2,3.09,3,.48.48.85,1.06,1.33,1.54s1,1,.73,2.05c-.17.53.39,1.32.68,2a11.3,11.3,0,0,0,2.87,4.3l1.15-1.84c.32.6.66,1.21,1,1.82.68,1.36,1.28,2.76,2.07,4.05.21.35,1,.36,1.65.57-.11-.4-.15-.51-.17-.62-.13-.53-.25-1.06-.38-1.59a5.18,5.18,0,0,1,1.75.27c1.32.71,1.21,1.19.53,2.49a6.39,6.39,0,0,0-.55,3.22c.06,1.29-.41,1.58-1.54,1.27-.64,1.17-.89,2.23,0,3.35,1.33,1.6,2.59,3.24,3.86,4.89a5.08,5.08,0,0,1,1.18,3.24,7.36,7.36,0,0,0,1.49,3.93c1.65,2.29,1.62,3.61-.61,5.32-.16.12-.37.22-.44.39-1.16,2.64-3.55,3.7-6,4.76a2,2,0,0,0-.8,1c-.39.83-.66,1.72-1.07,2.54a2.08,2.08,0,0,1-3.45.81c-1.75-1.33-3.46-2.72-5.17-4.08-.5-.4-.65-.86-.09-1.29a1.15,1.15,0,0,0,.11-1.87c-.68-.78-1.1-1.89-2.36-2.06-.21,0-.5-.46-.5-.71a8.33,8.33,0,0,1,2.94-6.68c.57-.49,1-1.12,1.53-1.66s1.11-.9,1.54-1.44a36.32,36.32,0,0,0,2.1-3c.52-.83.92-1.74,1.47-2.55a1.08,1.08,0,0,1,1,0c.89,1.52,1.71,3.06,2.51,4.63.11.22,0,.58-.05.87-.29-.14-.72-.19-.86-.42-.5-.8-.9-1.67-1.33-2.51Zm-5.76,7.92h-.36c-.3.63-.86,1.25-.84,1.87s.63,1.15,1,1.73c.32-.35.93-.73.9-1A13.74,13.74,0,0,0,115.65,202.94Z"/><path class="cls-1" d="M80.92,149c5.15,2.15,9.64,5.44,14.45,8.4a4.63,4.63,0,0,0-.63-1.19c-2.26-2.34-4.46-4.62-7.63-6-2.76-1.2-5.1-3.39-7.61-5.15-.15-.1-.21-.31-.31-.47l.21-.32L86.29,148c.33-1.5.93-1,1.66-.45,2.76,2.23,5.58,4.39,8.31,6.65a7.68,7.68,0,0,1,1.18,1.8c.33.49.68,1,1,1.43,2.85,3.55,5.69,7.11,8.56,10.64,1.82,2.23,3.72,4.39,5.53,6.63.87,1.08,1.62,2.26,2.39,3.42a4.69,4.69,0,0,1,.41,1l-.34.22-4.5-5.14-.16,3.07-.24.05c-1.06-2.05-2-4.15-3.22-6.13s-2.58-3.92-3.88-5.88l-.39.23,1.49,3.74-.43.25c-.67-1-1.28-2-2-2.86s-1.65-1.66-2.48-2.48l-.37.2,1.31,3.38-.3.2a10.41,10.41,0,0,1-1-1.28q-1.16-2-2.22-4.11A19.42,19.42,0,0,0,89,154.9c-2.49-1.51-4.92-3.13-7.37-4.72a11.56,11.56,0,0,1-1-.77Z"/><path class="cls-1" d="M159.15,214.28c0,1.56.35,3.12-1,4.4l-.82-.57c-.5,1.62.25,3.4-1,5.18a7.12,7.12,0,0,1-.28-1.26c.15-4.66-1.68-8.79-3.31-13-1.16-3-1.92-6.17-2.87-9.27-.59-1.91-1.17-3.82-1.78-5.72-2.16-6.77-4.36-13.54-6.5-20.32-.33-1.06-.32-2.24-.7-3.27-.88-2.39-1.87-4.73-2.88-7.06A7,7,0,0,0,136.9,162c.2-2.64-1.87-4.7-2.6-7.35l-1.39.71c0-.3-.14-.53-.07-.66.78-1.32.1-2.24-.77-3.17-3.49-3.75-5.23-8.36-6.46-13.21a4.86,4.86,0,0,1-.16-.94c0-1,.58-1.43,1.37-.94,2.85,1.76,5.77,3.45,8.45,5.46a7.56,7.56,0,0,1,2.72,4.54c.35,1.64.89,3.24,1.4,4.83a1.68,1.68,0,0,0,.78.8,16.45,16.45,0,0,1,5.35,4.53,5.18,5.18,0,0,1,.91,5,9.31,9.31,0,0,0-.22.93c3,2.09,5.78,4.21,7.42,7.47.55,1.1,1.19,2.17,1.79,3.25.09.17.28.34.29.52.12,3.09,2.39,5.4,3,8.32a71.31,71.31,0,0,0,2,7.76,98.34,98.34,0,0,0,3.7,9.33,37.42,37.42,0,0,1,2.42,8.86,35.17,35.17,0,0,0,2.56,8.81c2.67,5.47,2.66,11,1.36,16.7a5.35,5.35,0,0,1-.5,1h-.39a11.1,11.1,0,0,1-.36-1.46c-.39-3.17-.42-6.44-1.21-9.51a102.52,102.52,0,0,0-3.81-10.7c-.57-1.49-1.29-2.92-1.94-4.38s-1.52-3.16-2.11-4.8a66.62,66.62,0,0,1-2.51-7.87c-1.16-5.11-3.83-9.3-7.11-13.27-1.77-2.16-3.85-4.18-4.86-6.9-.52-1.38-1-2.78-1.39-4.2-1.27-4.58-2.44-9.18-3.77-13.74a32.42,32.42,0,0,0-2.05-5.09,12.93,12.93,0,0,0-2.48-3.89c-2-1.85-4.34-3.37-6.54-5-.13-.1-.37-.06-.61-.09a2.62,2.62,0,0,0,1.12,2.52c1.23,1.14,2.5,2.24,3.69,3.43a8.72,8.72,0,0,1,1.86,2.31c1.42,3,2.82,6.08,4,9.21.91,2.42,1.36,5,2.24,7.44,2.16,5.91,4.67,11.66,8.67,16.6a15.66,15.66,0,0,1,2.7,6.07,3,3,0,0,1-.17,1.66c-1.53-2.57-2.28-5.57-4.6-7.58l-.35.13c.81,2.74,1.62,5.49,2.44,8.31,1.22-1.25,1.29-1.28,1.9.34a79,79,0,0,1,2.6,7.69c.35,1.37,0,2.89.11,4.35a1.75,1.75,0,0,0,.39,1c2,2.27,4.24,4.39,6,6.82a22.85,22.85,0,0,1,2.43,5.44,4.65,4.65,0,0,1-.41,4.68,89.94,89.94,0,0,0-4.42,8.22c-1,1.88-2,3.75-3,5.59a9,9,0,0,1-5.36,4.6c-2.1.61-3.24,2.33-4.42,4l.18.28c.6-.36,1.2-.69,1.78-1.07,1.87-1.2,3.78-2.37,5.58-3.67a13.78,13.78,0,0,0,2.21-2.3c.69-.8,1.31-1.66,1.94-2.51a9.5,9.5,0,0,0,.75-1.22c1.64-3.17,3.23-6.38,4.95-9.51.36-.67,1.15-1.1,1.74-1.63.19.7.45,1.39.57,2.1s-.1,1.23,0,1.79a13.11,13.11,0,0,0,.83,2.12,6.79,6.79,0,0,1,.5,1.06,24,24,0,0,1,.43,9.5c-.74,3.72-1.46,7.45-2.25,11.16-.43,2-.91,2.28-2.79,1.69-.59-.19-.85,0-1.12.48-.49,1-1,1.89-1.6,2.81-.38.61-.89.69-1.3,0s-.94-1.66-1.35-2.51a18.18,18.18,0,0,1-.76-1.89c-1.4-3.84-5.86-4.22-8.42-2.73-1.45.83-2.84,1.78-4.25,2.68a3,3,0,0,1-.71.44c-.71.18-1.43.29-2.15.43,0-.6,0-1.2-.1-1.8-.14-1.39-.35-2.77-.45-4.16a109.47,109.47,0,0,0-2.27-15.41c-.08-.37-.18-.74-.27-1.11l-.36,0c-.37,1.44-.73,2.88-1.1,4.31l-.54,0c-.55-1.78-1.09-3.57-1.66-5.44l-.81.37-.62-1.55c-.7,1.41-1.27,2.54-1.83,3.68a10.32,10.32,0,0,1-.62,1.3c-.15.23-.48.35-.73.52a3.13,3.13,0,0,1-.47-.88c-.24-1.53-.45-3.06-.63-4.6-.12-1.05-1.2-1-1.75-1.49a1.89,1.89,0,0,0-.82.74,15,15,0,0,0-.1,1.66c0,.26-.29.49-.46.74-.23-.18-.63-.33-.67-.54a27.45,27.45,0,0,1-.48-4.33,3.42,3.42,0,0,0-1.68-3.24,5.32,5.32,0,0,1-1.49-1.18c-.94-1.1-.77-1.72.23-2.76a25.61,25.61,0,0,0,2.22-2.93c.3-.42.43-1,.8-1.32,1.26-1,2.58-2,3.91-2.93.24-.17.65-.09,1-.12-.11.33-.12.77-.35,1-1.23,1.19-2.5,2.35-3.79,3.47a5.76,5.76,0,0,0-1.72,3.86,4.08,4.08,0,0,0,.8-.93,13.22,13.22,0,0,1,4.91-5.55,25.11,25.11,0,0,0,3.64-3.78c.09-.09.07-.28.14-.63l-2.6,1.55-.36-.4c.73-.86,1.06-2.05,2.22-2.54a1.27,1.27,0,0,1,1.76.83,32.83,32.83,0,0,0,4.44,8.53c1.51,2.05,1.77,4.44,2.06,6.8a30.47,30.47,0,0,0,2.28,7.79c.57,1.39,1,2.82,1.64,4.44.09-.34.16-.44.14-.53q-1.61-7.5-3.22-15a5.67,5.67,0,0,1-.33-1.27c.12-2.24-1.42-3.29-2.94-4.42a2,2,0,0,1-.66-1.06c-.49-1.89-.91-3.8-1.39-5.7a3.48,3.48,0,0,0-.42-.84c-.94-1.75-1.88-3.49-2.81-5.24-.17-.32-.27-.66-.44-1-.71-1.37-1.41-2.75-2.16-4.1-.39-.72-.9-1.38-1.31-2.1-1-1.72-2-3.45-2.91-5.21-.12-.23.09-.64.15-1,.31.18.77.27.92.54,1.41,2.5,2.76,5,4.13,7.55,1.86,3.43,3.17,7.17,5.68,10.24.37.46.84.85,1.24,1.29a3.4,3.4,0,0,1,1,3.15,1.81,1.81,0,0,0,.12,1.05c.8,1.91,1.58,3.82,3.39,5.07,2.53,1.75,3.77,4.51,5.29,7a17.72,17.72,0,0,1,1.61,3.71,9.93,9.93,0,0,1,.41,2.83c.11,2.74.14,5.5.21,8.25,0,.1.08.2.16.37.16-.05.34-.05.43-.14a26.86,26.86,0,0,0,7.38-13.47c.37-1.86,1-3.7,1.15-5.58a36.57,36.57,0,0,0-.06-5.23A2.4,2.4,0,0,0,159.15,214.28ZM147,241.22h.24a10,10,0,0,0,.25-1.52c0-2.43,0-4.86,0-7.29,0-2.09-1.17-3.68-2.21-5.33-.08-.13-.31-.16-.55-.27.14,1.18.22,2.24.4,3.29a20.54,20.54,0,0,0,.57,2.18,10.79,10.79,0,0,1,.54,1.79C146.51,236.45,146.71,238.83,147,241.22Zm-20.77-18.86a1,1,0,0,0,1.51-.09c1.31-1.28,2.68-2.5,4-3.78a7.49,7.49,0,0,0,.85-1.28l-.26-.21Zm34.92-1.28c1-1.34.94-3.66,0-4.58Zm-35.21-2.21.47.43,3.29-3.47-.29-.27Z"/><path class="cls-1" d="M159.08,78.08c2.65-.32,5.29-.66,7.94-.93a1.46,1.46,0,0,1,1.07.59,1.89,1.89,0,0,1,.23,1.26c-.5,2.75-.94,5.51-1.63,8.21a26.54,26.54,0,0,1-2.13,6,33,33,0,0,1-3.79,5.34,22.7,22.7,0,0,1-8.58,6.13,26,26,0,0,0-6.25,4c-1.22,1.07-1.81,2.86-2.64,4.36-.1.18,0,.54.14.8,1.42,3.51,2.8,7,4.32,10.52a3.47,3.47,0,0,1,.28,2.84,4,4,0,0,0-.31,1.16c-.08,2.23-1.74,3.18-3.35,4.15a1.22,1.22,0,0,1-1.06-.1,7,7,0,0,1-3.39-4.84c-.35-2.54-2-4.14-4.08-5.3-.59-.34-1.75.05-2.54.37-1.65.67-3.19,1.61-4.85,2.25a3.83,3.83,0,0,1-2.27,0,1.73,1.73,0,0,1-1.46-2.39,83.94,83.94,0,0,1,5.91-17.82,63.54,63.54,0,0,1,7.83-12.74c2.72-3.46,6.11-6.4,9.26-9.52,1.27-1.26,2.7-2.37,4-3.58a3.09,3.09,0,0,1,2.38-.88c1.63.08,3.28,0,4.92,0Zm-12.22,6.57a28,28,0,0,1,10.9,5.91,11.58,11.58,0,0,0-8.6-6.34c.51-.33,1-.64,1.43-.52a30.32,30.32,0,0,1,4.21,1.64c2.76,1.37,4.57,3.79,6.46,6.12l1,1.15a2.8,2.8,0,0,0,0-.68,17,17,0,0,0-8.37-8.81C151.36,81.88,149.12,82.29,146.86,84.65Zm-6.62,6.67a3.63,3.63,0,0,0,3.84,1.2A6.28,6.28,0,0,1,149.76,94c1.71,1.44,3.34,3,5,4.45.23.2.48.36.76.57a1.23,1.23,0,0,0,0-1.87c-.39-.4-.81-.77-1.2-1.18-3.28-3.4-7-5.8-12-5.37A10.06,10.06,0,0,0,140.24,91.32ZM144.61,107c-2.43-3.9-6.42-5.31-11-3.63l8.1,4.18.17-.24-1-1.69.21-.18Zm-5.22,14,.33-.22c-.29-.59-.42-1.36-.89-1.74-2.06-1.68-4.18-3.28-6.34-4.84-1.13-.81-2.64-.64-4.24.54C133.32,114.77,135.92,118.62,139.39,121Zm12.45-23.1c-.75-1.68-4.5-4.33-6-4.37-.32,0-.66.32-1,.52C147.2,95.37,149.39,96.56,151.84,97.9Z"/><path class="cls-1" d="M81.54,99a9,9,0,0,1,2-.62c4.31-.21,8.28-1.64,12.23-3.2a1.81,1.81,0,0,0,.54-.26c1.71-1.75,3.87-1.59,6-1.51A6.34,6.34,0,0,0,104,93l0-.49a6.32,6.32,0,0,0-1.28-.26c-.92,0-1.85.09-2.76,0a9.11,9.11,0,0,0-7,2.43,3.28,3.28,0,0,1-1.38.66c-2.8.65-5.62,1.25-8.42,1.91a4,4,0,0,0-1.51.63c-1.28,1-1.39,1-2.78-.53a29,29,0,0,1,2.9-1.08,58.82,58.82,0,0,1,6.77-1.59,10.35,10.35,0,0,0,5.67-2.85,3.37,3.37,0,0,1,2.6-.92c2,.07,4,0,5.94,0l.11-.37a5.77,5.77,0,0,0-1.61-.54c-2.07-.08-4.16-.09-6.23,0a2,2,0,0,0-1.34.6c-1.81,2.37-4.37,3.11-7.14,3.66s-5.71,1.48-8.58,2.2a1.22,1.22,0,0,1-.94-.22c-2.9-2.26-5.89-4.42-8.61-6.89a62.21,62.21,0,0,1-5.08-5.89c2.2-.47,4.13-.88,6.06-1.31,1.13-.25,2.26-.53,3.39-.78a9.74,9.74,0,0,1,3-.56,9.63,9.63,0,0,0,6.06-1.38,6.86,6.86,0,0,1,4-.87c1.71.14,3.43.14,5.15.14.27,0,.54-.3.81-.45-.24-.23-.46-.62-.73-.65a57.47,57.47,0,0,0-7-.6c-1.2,0-2.39.8-3.6,1.21a10.56,10.56,0,0,1-2.9.9A46.57,46.57,0,0,0,63.1,82.24c-1,.37-1.16-.48-1.65-1,.18-.14.29-.28.42-.32,4.21-1.27,8.4-2.58,12.85-2.77a13.67,13.67,0,0,0,7.81-2.33,4.88,4.88,0,0,1,3.34-.59A16.56,16.56,0,0,0,89.63,75c-.33-.23-.66-.63-1-.66-1.79-.15-3.59-.23-5.39-.28a1.68,1.68,0,0,0-1,.33,8,8,0,0,1-4.06,1.26c-3.84.53-7.69,1-11.49,1.75a51.51,51.51,0,0,0-5.76,2,1.37,1.37,0,0,1-1.21-.17c-2.51-3.41-5.09-6.78-6.66-10.77A1.74,1.74,0,0,1,53,68l1.12-.48c7.06-2.88,14.5-3.41,22-3.57.47,0,1.1.07,1.39-.19,1.5-1.34,3.2-.93,4.9-.75a4.84,4.84,0,0,0,1.31.08c.26,0,.68-.39.66-.59s-.31-.84-.52-.86c-1.75-.15-3.51-.2-5.27-.26a.57.57,0,0,0-.44.16c-1,1.3-2.51,1-3.88,1a53.45,53.45,0,0,0-15.78,1.83,24.94,24.94,0,0,0-4.18,1.77c-1.49.69-1.55.68-2.16-1.27a44.75,44.75,0,0,1,6.37-2.18,54,54,0,0,1,15.74-1A3.37,3.37,0,0,0,77,61a3.42,3.42,0,0,1,2.67-.78c1.21.09,2.44,0,3.66,0l.15-.3a8,8,0,0,0-1.52-.81c-.68-.21-1.44-.16-2.13-.36a4,4,0,0,0-4.19.89,2.57,2.57,0,0,1-1.77.48,53,53,0,0,0-13.95,1c-2.4.54-4.71,1.52-7.05,2.3l-.9.28a7.34,7.34,0,0,1-.26-.92A54.14,54.14,0,0,1,50.82,56a50.49,50.49,0,0,1,.74-7.23c0-.25.69-.61,1-.6,6.56.09,13.13-.05,19.64.91,1.4.21,2.46-.39,3.65-.8A4,4,0,0,1,78,48.1c2,.46,3.89,1.09,5.9,1.67a1.16,1.16,0,0,0-1-1.51c-1.81-.49-3.61-1-5.42-1.54a1.89,1.89,0,0,0-1,0c-3.52,1.23-7.11.82-10.69.48-1-.09-1.92-.13-2.86-.3a31.52,31.52,0,0,0-9.79.18c-.39.05-1.12-.17-1.18-.4-.17-.71.29-1,1-1.09A54.61,54.61,0,0,1,71.28,46,3.92,3.92,0,0,0,74,45.65a3.62,3.62,0,0,1,2.13-.3c2,.33,4.07.82,6.11,1.23a3.88,3.88,0,0,0,.68,0l.2-.31a3.89,3.89,0,0,0-1.08-.73C79.72,45,77.35,44.36,75,43.86a4.44,4.44,0,0,0-1.68.37c-.63.15-1.33.56-1.9.43-5.81-1.36-11.69-.9-17.55-.72-1.46,0-1.39,0-1.39-1.44,0-2.63,0-5.27-.28-7.88-.09-.91-.87-1.74-1.34-2.61l-.46-.9c.51,0,.84,0,1.18,0,6.38.45,12.75.94,19.14,1.32a6.13,6.13,0,0,0,3-.69c1.87-.94,3.55-.44,5.27.28.45.19.88.42,1.32.64l.23-.29c-.18-.25-.31-.59-.56-.74A11.25,11.25,0,0,0,74,30a.57.57,0,0,0-.35.05c-2.18,1.67-4.54.54-6.83.47-5.24-.16-10.47-.38-15.71-.51-1.12,0-1.56-.51-1.7-1.65.42,0,.76,0,1.1,0,4.91.22,9.83.42,14.74.7a40,40,0,0,1,5.23.67,2.15,2.15,0,0,0,2.4-.83,1.93,1.93,0,0,1,2.4-.78c1.51.49,3,1,4.55,1.4a13.7,13.7,0,0,0,2,.25l.2-.58a22.53,22.53,0,0,0-3.5-2.05,17.88,17.88,0,0,0-3.77-.61,3,3,0,0,0-3.06,1.14,1.41,1.41,0,0,1-1.14.4A103.82,103.82,0,0,0,49.5,27.4a2.69,2.69,0,0,1-2.49-1c-1.67-2-3.89-2.44-6.35-1.89-.9.2-1.79.43-2.67.7a3.9,3.9,0,0,1-5.23-3.31c-.16-1.15-.29-2.3-.44-3.45a3.65,3.65,0,0,1,2.13-4.11,61.4,61.4,0,0,1,6.62-3.36,37.71,37.71,0,0,1,6.84-1.66c4.76-.85,9.58-1.38,14.3-2.4A39.52,39.52,0,0,0,69.81,4C72.17,3,74.43,1.64,76.71.41c1.41-.77,2.55-.46,3.21,1a23.13,23.13,0,0,1,1.57,4.19,11,11,0,0,0-2.7-2,11.13,11.13,0,0,0-3.37-.07l-.18.38c1.1,1.23,2.19,2.46,3.3,3.68A2.52,2.52,0,0,0,79,8c1.51,1,2.69,2.17,2.41,4.36-.14,1.05.51,2.2.89,3.63a27.29,27.29,0,0,0-2.54-1.2A34.55,34.55,0,0,0,75.9,13.6a1.59,1.59,0,0,0-1.17.41,1.58,1.58,0,0,1-2,.15c-2.61-1.2-5.27-2.31-7.89-3.51a2.15,2.15,0,0,0-2.59.45L70,14.9l-.11.29L68,14.57c-3.41-1.14-6.81-2.32-10.24-3.4a8.42,8.42,0,0,0-2.36-.24,22.9,22.9,0,0,1-3.71,0c-2.61-.52-4.86.41-7.14,1.41a5.91,5.91,0,0,0-.78.58,7.39,7.39,0,0,0,2.33.26,27.28,27.28,0,0,1,15.67,1c2.28.75,4.54,1.56,6.85,2.22a11.43,11.43,0,0,0,3.86.59c2.68-.2,5,1,7.43,1.64a2.83,2.83,0,0,0,1.51-.16c.48-.16,1.09-.81,1.34-.68.67.36,1.55.94,1.69,1.57.57,2.64,1.56,5.22,1.21,8-.57,4.61-1.09,9.21-1.62,13.82a3.84,3.84,0,0,0,0,1.07c.51,3.44,1.11,6.86,1.54,10.3.81,6.62,3.34,12.61,6.35,18.48,3.83,7.46,8.58,14.32,13.24,21.25a19.66,19.66,0,0,1,3.62,11.37,6.33,6.33,0,0,1-1.64,4.26,27.8,27.8,0,0,0-2.86,3.93,4.56,4.56,0,0,0,0,4.85c.53,1,.81,2.18,1.36,3.2a12.4,12.4,0,0,1,1.6,8,8.76,8.76,0,0,1-.63,2.12,2.41,2.41,0,0,1-2.66,1.42,2.53,2.53,0,0,1-2.09-2.2c-.38-3-.77-6-1.2-9a6,6,0,0,0-.58-1.91,49.79,49.79,0,0,0-7.53-10.34,39,39,0,0,0-5-4c-1.6-1.25-3.22-2.49-4.82-3.75A15.58,15.58,0,0,1,81.54,99Z"/><path class="cls-1" d="M33.55,90.63c-.21-.45-.36-.72-.46-1-.77-2.27-1.49-4.56-2.29-6.82a11.62,11.62,0,0,0-4.65-6.08,58.44,58.44,0,0,0-7.59-3.8,8.47,8.47,0,0,0-2.83-.4c-2.82-.19-4.86-1.86-6.84-3.6a16.51,16.51,0,0,1-2.36-2.71A2.53,2.53,0,0,1,6,64.47c.3-1.33.62-2.7,2-3.5,3.08-1.77,6.14-3.59,9.15-5.48a47.28,47.28,0,0,0,4.26-3.06c3-2.38,5.88-5,9-7.18a20.64,20.64,0,0,1,9.94-3.9c2.37-.24,4.77-.32,7.16-.4.89,0,1.29.56,1.12,1.44-.47,2.39-1,4.77-1.44,7.17-.15.79-.56.85-1.2.7a37.94,37.94,0,0,0-10.25-.73c-1.67,0-3.34.34-5,.54-.14,0-.26.14-.38.47l10.4.69v.35l-8.65.59v.36c1.67.22,3.34.57,5,.63,3.07.13,6.14.14,9.22.1,1,0,1.53.09,1.33,1.35-.29,1.85-.41,3.73-.53,5.61,0,.79-.32,1.15-1.1.89-3.73-1.24-7.29-.42-10.91.61-4,1.12-8,2-12,2.93A3.13,3.13,0,0,0,21,66.31c-.49.91-1.08,1.76-1.71,2.77a3.41,3.41,0,0,0,.81,0c2.65-.76,5.26-1.74,8-2.25,4.35-.82,8.76-1.36,13.15-1.95,2-.27,4-.35,6-.58.86-.11,1.21.17,1.42,1,.46,1.86,1,3.68,1.61,5.82C42.65,71.16,36,73.82,29,76.42a17.69,17.69,0,0,0,1.77,1.93,1.59,1.59,0,0,0,1.2,0c4.18-1.24,8.33-2.55,12.52-3.74,2-.56,4.05-.93,6.1-1.29a1.45,1.45,0,0,1,1.22.54c1.28,2.35,2.46,4.76,3.66,7.15a3.43,3.43,0,0,1,.12.65A27.18,27.18,0,0,0,43.68,84C40,85.69,36.27,87.23,33.55,90.63Z"/><path class="cls-1" d="M43.27,104.44c.43-.2.72-.36,1-.48l9.07-3.48a1.65,1.65,0,0,1,.56-.2c3.23.16,5.64-2,8.5-3a53.73,53.73,0,0,0,5-2,1.53,1.53,0,0,1,1.75.24c1.7,1.39,3.44,2.74,5.17,4.09.38.29.79.71,1.2.75,1.37.1,2,1,2.58,2,.93,1.56,1.94,3.08,3,4.71a5.47,5.47,0,0,1-.9.33,29.12,29.12,0,0,0-13.7,5.92,2.39,2.39,0,0,1-2.81.25c-6.63-3-13.28-5.92-19.93-8.87A3.57,3.57,0,0,1,43.27,104.44Z"/><path class="cls-1" d="M41.37,102.34c-3.62-1.45-5.71-4.54-6.53-8.56-.67-3.32-1-2.29,1.71-4.26,3.31-2.44,7.16-3.68,10.9-5.15a21.24,21.24,0,0,1,3.84-.77l.1.32c-2.36.89-4.71,1.8-7.08,2.67a23.7,23.7,0,0,0-6.64,3.73c2.07,0,16.24-6.08,18.7-8,.39.54,1.13,1.1,1.1,1.61s-.76,1.14-1,1.88a3.12,3.12,0,0,0,.8-.51c.78-.86,1.28-.7,1.91.25a24.32,24.32,0,0,0,6.33,7c.11.08.15.25.41.68C56.79,93.94,48.9,97.33,41.37,102.34Z"/><path class="cls-1" d="M68.7,115.72c3.16-1.49,6.3-3,9.49-4.44a54.89,54.89,0,0,1,5.17-1.87c.32-.1.9-.1,1.06.09a59.51,59.51,0,0,1,4.4,5.78c.41.67,0,1.91-.17,2.85,0,.23-.72.45-1.12.47a2.94,2.94,0,0,0-2.91,1.85c-.33.84-.89.88-1.73.7-1.49-.33-3-.41-4.54-.71a6.3,6.3,0,0,1-1.83-.84,9.66,9.66,0,0,0-3.81-1.45c-1.39-.17-2.66-1.28-4-2Z"/><path class="cls-1" d="M66.43,114.91l4.51-3c.34,1.22-.26,2-2.94,3.56-.36.22-1,0-1.48,0Z"/><path class="cls-1" d="M59.36,96.89l-7.88,2.32c2.07-2.54,5.1-2,7.74-2.76Z"/><path class="cls-1" d="M18.66,372.32c-.37-2.15,1.69-3.06,2.45-4.79.77.88.77,1.51.12,2.23-.78.88-1.48,1.83-2.21,2.75Z"/><path class="cls-1" d="M189.77,292.68,186.42,289c-.31,1.63-1,2.77,0,4.29a7.67,7.67,0,0,1,.85,3.77c.12,2.3,0,4.62,0,6.93a10.26,10.26,0,0,1-.13,1.23l-.33.07a3.22,3.22,0,0,1-.4-.95c-.15-2-.25-4-.38-6,0-.27,0-.64-.2-.77-1-.84-2.12-1.63-3.36-2.56-.5,2.49.25,4.84-.63,7l-.44.05a10.2,10.2,0,0,1-.38-1.79c-.16-3.55-.22-7.11-.42-10.66-.12-1.94-.57-3.87-.68-5.81-.16-2.79-.2-5.59-.2-8.38a9.78,9.78,0,0,1,.47-3.24c.41-1.16.94-1.1,1.86-.31a6.68,6.68,0,0,1,2.23,5.57c0,.6.07,1.2,0,1.8a7.63,7.63,0,0,0,2,5.9,18.31,18.31,0,0,1,3.71,6.65,4.76,4.76,0,0,1,.08.66Z"/><path class="cls-1" d="M180.36,304.22a1.46,1.46,0,0,1,0,.47c-.12.26-.29.5-.43.74-.2-.21-.52-.4-.57-.64-.32-1.73-.59-3.47-.88-5.2-.43-2.61-.86-5.21-1.34-7.8a4.93,4.93,0,0,0-.6-1.16,15.7,15.7,0,0,1-1.35-8.3c0-.39.3-1.05.53-1.08a1.51,1.51,0,0,1,1.23.49,5.63,5.63,0,0,1,.93,2.15c.61,3.94,1.18,7.9,1.66,11.86.35,2.81.53,5.64.79,8.47Z"/><path class="cls-1" d="M179.33,284.57l.47,4.54C178.58,288.06,178.3,285.51,179.33,284.57Z"/></g></g></svg>