<?xml version="1.0" encoding="utf-8"?>
<!-- Generator: Adobe Illustrator 21.0.0, SVG Export Plug-In . SVG Version: 6.00 Build 0)  -->
<svg version="1.1" id="Calque_1" xmlns="http://www.w3.org/2000/svg" xmlns:xlink="http://www.w3.org/1999/xlink" x="0px" y="0px"
	 viewBox="0 0 1280 1509.2" style="enable-background:new 0 0 1280 1509.2;" xml:space="preserve">
<style type="text/css">
	.st0{fill:none;stroke:#000000;stroke-miterlimit:10;}
</style>
<g>
	<g>
	</g>
</g>
<path d="M469.6,375.6l-33.1,78.1l-109.3,396L395.3,962l198-153.9l10.6-403.6L469.6,375.6z M498,476.2l-14-3l12.2-56.9l14,3
	L498,476.2z M548.4,487l-14-3l12.2-56.9l14,3L548.4,487z"/>
<path d="M439.6,57L357,40.6L226.8,180.1L263,430l-18.6,280.6l76.2,15.1l36.2-154.1l139.1-366.2L439.6,57z M256.9,186.1l31.4-3.6
	l9.4,80.8l-31.4,3.6L256.9,186.1z M280.4,388.7l-9.4-80.8l31.4-3.6l9.4,80.8L280.4,388.7z M411.9,83.9l14.1,2.8l-11.3,57l-14.1-2.8
	L411.9,83.9z M361.4,73.8l14.1,2.8l-11.3,57l-14.1-2.8L361.4,73.8z M353.7,508.3L324.1,497l29.1-76l29.6,11.3L353.7,508.3z
	 M397.5,393.7l-29.6-11.3l29.1-76l29.6,11.3L397.5,393.7z M411.8,267.9l29.1-76l29.6,11.3l-29.1,76L411.8,267.9z"/>
<polygon points="27.5,757.5 44.7,757.7 44.9,718.3 27.9,718.1 28.4,683.7 45.2,683.9 45.4,644.5 28.8,644.3 29.1,624.3 45.4,620.8 
	186.1,588.2 216.9,595.5 200.4,665.7 169.3,658.4 158.3,706.7 189.8,714.1 173.3,784.3 142.3,777 137.6,797.9 27.2,783.6 "/>
<polygon points="188.2,324.1 58,260.1 26.3,260.4 27.1,332.5 59,332.2 59.2,381.7 26.9,382.1 27.7,454.2 59.5,453.8 59.5,453.8 
	59.7,513.4 27,513.7 27.8,575.2 132.6,577.8 154.6,477.2 171.5,480.9 178.6,447.6 161.9,444 171.3,401.4 187.7,404.9 195,370.2 
	178.9,366.7 "/>
<rect x="146.1" y="184.1" class="st0" width="9.6" height="2.8"/>
<path d="M195.2,122.5c0-5.6-15.3-26.7-20.9-26.7c-5.6,0-23.6,20.5-23.6,26l12.1,19.3l0.1,50.4l-16.8,0l-0.2-10l-14.5,0l0.1,57.3
	l51.7-0.1l-0.1-97.7L195.2,122.5z M182.8,121.1c-0.3,5.2-4.8,9.2-10,8.9s-9.2-4.8-8.9-10c0.3-5.2,4.8-9.2,10-8.9
	S183.1,115.9,182.8,121.1z"/>
<path d="M110.7,122.5c0-5.6-15.3-26.7-20.9-26.7c-5.6,0-23.6,20.5-23.6,26l12.1,19.3l0.1,50.4l-16.8,0l-0.2-10l-14.5,0l0.1,57.3
	l51.7-0.1l-0.1-97.7L110.7,122.5z M98.2,121.1c-0.3,5.2-4.8,9.2-10,8.9s-9.2-4.8-8.9-10s4.8-9.2,10-8.9S98.5,115.9,98.2,121.1z"/>
<path d="M88,31.2l-51.7,0.1l0.1,97.7l-12.2,18.7c0,5.6,15.3,26.7,20.9,26.7c5.6,0,23.6-20.5,23.6-26l-12.1-19.3l-0.1-50.4l16.8,0
	l0.2,10l14.5,0L88,31.2z M55.7,150.1c-0.3,5.2-4.8,9.2-10,8.9s-9.2-4.8-8.9-10s4.8-9.2,10-8.9S56,144.9,55.7,150.1z"/>
<path d="M172.6,31.2l-51.7,0.1L121,129l-12.2,18.7c0,5.6,15.3,26.7,20.9,26.7c5.6,0,23.6-20.5,23.6-26l-12.1-19.3l-0.1-50.4l16.8,0
	l0.2,10l14.5,0L172.6,31.2z M140.2,150.1c-0.3,5.2-4.8,9.2-10,8.9c-5.2-0.3-9.2-4.8-8.9-10c0.3-5.2,4.8-9.2,10-8.9
	S140.5,144.9,140.2,150.1z"/>
</svg>
